<?xml version="1.0" encoding="UTF-8"?>
<svg version="1.1" xmlns="http://www.w3.org/2000/svg" width="2000" height="1500">
<path d="M0 0 C660 0 1320 0 2000 0 C2000 495 2000 990 2000 1500 C1340 1500 680 1500 0 1500 C0 1005 0 510 0 0 Z " fill="#010536" transform="translate(0,0)"/>
<path d="M0 0 C7.45613671 2.82863928 12.36712434 8.4453958 15.80078125 15.5 C19.9760666 26.97891884 20.56055925 39.0448302 21.62109375 51.12890625 C22.33042377 59.12760312 23.50244264 66.98127313 24.87011719 74.88867188 C25.37057955 77.84563714 25.83898006 80.80689523 26.3046875 83.76953125 C26.47943604 84.87965576 26.65418457 85.98978027 26.83422852 87.13354492 C27.1737674 89.29248187 27.51283004 91.45149379 27.85131836 93.6105957 C28.7408035 99.20274223 29.72939692 104.75094614 30.9152832 110.28833008 C31.40598948 113.01688304 31.44232643 115.64657905 31.296875 118.41015625 C32.369375 118.45140625 33.441875 118.49265625 34.546875 118.53515625 C53.80130958 121.10692607 70.94463795 141.67334737 82.86328125 155.76171875 C84.25183985 157.35837196 85.7074794 158.82170507 87.234375 160.28515625 C89.296875 162.41015625 89.296875 162.41015625 89.296875 164.41015625 C89.874375 164.67183594 90.451875 164.93351563 91.046875 165.203125 C93.44069752 166.48731104 95.23635059 167.95378695 97.296875 169.72265625 C102.29466151 173.79027865 107.56911633 177.29752628 112.984375 180.78515625 C113.85529785 181.34614014 114.7262207 181.90712402 115.62353516 182.48510742 C117.36380154 183.6036655 119.10467796 184.72127511 120.84619141 185.83789062 C143.7393906 200.52529876 169.07204876 216.92536153 175.296875 245.41015625 C175.3901811 246.86278287 175.43575952 248.31893954 175.44404602 249.77453613 C175.45477898 251.07409996 175.45477898 251.07409996 175.46572876 252.3999176 C175.46841766 253.34237839 175.47110657 254.28483917 175.47387695 255.25585938 C175.48044815 256.25463608 175.48701935 257.25341278 175.49378967 258.28245544 C175.51349168 261.58543981 175.52517548 264.88837888 175.53515625 268.19140625 C175.53923178 269.31909927 175.5433073 270.4467923 175.54750633 271.60865784 C175.56834908 277.57194841 175.58266128 283.53521606 175.59204102 289.49853516 C175.60313037 295.66594599 175.63756467 301.8329985 175.67721272 308.00028229 C175.70330731 312.73741341 175.71172625 317.47445798 175.71532249 322.21165466 C175.72020325 324.4859002 175.73185925 326.7601415 175.75036049 329.03431702 C175.77460989 332.21132238 175.77381328 335.38738429 175.7668457 338.56445312 C175.78606079 339.9781443 175.78606079 339.9781443 175.80566406 341.4203949 C175.77555409 345.17719805 175.70514898 347.6852312 173.84269714 350.99217224 C169.97845957 353.14449349 166.45097849 352.97602605 162.09375 352.94360352 C161.16324829 352.95221909 160.23274658 352.96083466 159.27404785 352.9697113 C156.19804069 352.99241562 153.1229412 352.98562449 150.046875 352.9765625 C147.90982796 352.98179587 145.77278325 352.98807129 143.63574219 352.99534607 C139.15679047 353.00575837 134.67815631 353.0011764 130.19921875 352.98657227 C124.4553384 352.96937807 118.71245775 352.99288379 112.96868896 353.02806187 C108.5557592 353.05000572 104.14306979 353.04860174 99.73010254 353.04029655 C97.61217146 353.03947549 95.494223 353.04636843 93.37634277 353.06106758 C90.41693364 353.07845875 87.45933572 353.06401625 84.5 353.04125977 C83.62299438 353.05295197 82.74598877 353.06464417 81.84240723 353.07669067 C77.74800925 353.0125274 75.93984364 352.9614715 72.75083923 350.22705078 C71.13183001 347.09039988 70.80817823 345.22068292 70.83032227 341.70874023 C70.82495201 340.02559975 70.82495201 340.02559975 70.81947327 338.30845642 C70.8339299 337.1032283 70.84838654 335.89800018 70.86328125 334.65625 C70.85366915 332.0839838 70.84389844 329.51171818 70.83398438 326.93945312 C70.8378075 323.56935905 70.85185414 320.19932688 70.87060547 316.82928467 C70.89565471 312.25042298 70.88378137 307.67260395 70.86328125 303.09375 C70.87976212 301.9026915 70.89624298 300.711633 70.91322327 299.48448181 C70.8090976 281.78833715 60.41508482 268.4695398 48.296875 256.41015625 C45.60101188 254.07400507 42.84792964 251.83859866 40.05078125 249.625 C37.37380564 247.47202812 34.8316114 245.22797385 32.296875 242.91015625 C28.92226552 239.83361953 25.47871636 236.89897408 21.921875 234.03515625 C15.80294587 229.07596758 10.03416401 223.80046435 4.296875 218.41015625 C3.57628906 217.7553125 2.85570312 217.10046875 2.11328125 216.42578125 C-26.33417721 189.63823485 -26.67843593 150.42032072 -27.81109619 113.93188477 C-30.25985325 16.65413657 -30.25985325 16.65413657 -20.02734375 0.81640625 C-14.51745966 -2.51730514 -6.10324321 -1.33177706 0 0 Z M-9.703125 13.41015625 C-10.18763102 17.45120084 -10.66469752 21.49309309 -11.140625 25.53515625 C-11.27533203 26.65792969 -11.41003906 27.78070313 -11.54882812 28.9375 C-11.68095703 30.06542969 -11.81308594 31.19335938 -11.94921875 32.35546875 C-12.06966553 33.37141113 -12.1901123 34.38735352 -12.31420898 35.43408203 C-13.40354082 46.57084181 -13.86508844 57.62879528 -13.87109375 68.81640625 C-13.87432593 70.27152536 -13.87769127 71.72664418 -13.88117981 73.1817627 C-13.88712096 76.22062935 -13.88902541 79.25946781 -13.88842773 82.29833984 C-13.88834726 85.34429973 -13.89517097 88.39010668 -13.90893555 91.43603516 C-15.47151387 156.10699599 -15.47151387 156.10699599 15.296875 210.41015625 C17.8780954 212.85214069 20.57576031 215.12620425 23.296875 217.41015625 C24.44711241 218.40808541 25.59536431 219.40830533 26.7421875 220.41015625 C32.40137655 225.35168662 38.06512338 230.26495986 43.921875 234.97265625 C61.82716663 249.5207057 79.22242181 265.9730645 84.296875 289.41015625 C84.40852902 291.08915536 84.47245708 292.77165687 84.50219727 294.45410156 C84.52237915 295.46875488 84.54256104 296.4834082 84.56335449 297.52880859 C84.58806824 299.11749756 84.58806824 299.11749756 84.61328125 300.73828125 C84.63193237 301.71716309 84.6505835 302.69604492 84.6697998 303.70458984 C84.73802673 307.35635471 84.79822059 311.0082661 84.859375 314.66015625 C85.0759375 326.91140625 85.0759375 326.91140625 85.296875 339.41015625 C110.376875 339.41015625 135.456875 339.41015625 161.296875 339.41015625 C161.41332003 323.12502755 161.41332003 323.12502755 161.4921875 306.83984375 C161.51605012 300.19257756 161.5442057 293.54553287 161.59863281 286.8984375 C161.64226183 281.53621882 161.66604819 276.17423787 161.67638397 270.81185532 C161.68374478 268.77142472 161.69811845 266.73100637 161.71979523 264.69067764 C162.17305581 250.0098155 162.17305581 250.0098155 157.296875 236.41015625 C156.80445313 235.51941406 156.31203125 234.62867188 155.8046875 233.7109375 C154.32868672 231.58866519 152.84114797 229.48344968 151.296875 227.41015625 C150.85730469 226.81589844 150.41773438 226.22164062 149.96484375 225.609375 C142.67311442 216.4684463 132.42445112 209.92093586 122.734375 203.59765625 C121.69587402 202.911875 120.65737305 202.22609375 119.58740234 201.51953125 C116.49425073 199.47739519 113.39642092 197.44257062 110.296875 195.41015625 C96.32975492 186.24811029 82.97371041 177.35039664 71.984375 164.59765625 C67.68373671 159.60775088 62.98589102 155.03132477 58.296875 150.41015625 C57.47058594 149.58 56.64429688 148.74984375 55.79296875 147.89453125 C45.19194487 136.72569012 45.19194487 136.72569012 31.109375 131.91015625 C26.77144253 132.47906543 24.98848697 132.93710855 22.296875 136.41015625 C21.97276743 155.20839504 39.27878923 172.59204427 51.3046875 185.390625 C57.78108437 192.07572968 65.20561848 197.76234936 72.484375 203.53515625 C85.1696262 213.68335721 94.93222507 224.6670468 103.546875 238.41015625 C103.94205322 239.02068848 104.33723145 239.6312207 104.74438477 240.26025391 C106.55658027 243.27160506 107.30228385 245.18082085 107.21875 248.72265625 C106.296875 251.41015625 106.296875 251.41015625 103.296875 253.41015625 C100.859375 253.84765625 100.859375 253.84765625 98.296875 253.41015625 C95.56385081 250.37470726 93.42082283 247.08678841 91.30419922 243.60180664 C86.45480738 235.65044188 80.79016261 229.05305878 74.296875 222.41015625 C73.71550781 221.77851562 73.13414062 221.146875 72.53515625 220.49609375 C68.36571334 216.06409146 63.57895734 212.4524793 58.77563477 208.74462891 C52.62508949 203.96277356 46.94116645 198.77306074 41.296875 193.41015625 C40.60335937 192.78109375 39.90984375 192.15203125 39.1953125 191.50390625 C28.09811108 181.09171726 19.83393192 168.04131253 13.296875 154.41015625 C12.91660156 153.68828125 12.53632812 152.96640625 12.14453125 152.22265625 C9.22853914 145.98753949 9.37146609 138.09933246 10.296875 131.41015625 C13.3364948 125.95523691 13.3364948 125.95523691 16.609375 124.09765625 C18.50755488 122.59703733 18.50755488 122.59703733 18.29771423 120.62089539 C18.19938797 119.89352676 18.10106171 119.16615814 17.99975586 118.41674805 C17.89259247 117.60619965 17.78542908 116.79565125 17.67501831 115.96054077 C17.06402658 111.83971197 16.42306347 107.72644061 15.73828125 103.6171875 C15.58906723 102.70869553 15.43985321 101.80020355 15.28611755 100.86418152 C14.8127279 97.98330705 14.33631762 95.10294446 13.859375 92.22265625 C8.47012596 59.6134136 8.47012596 59.6134136 7.359375 45.91015625 C6.41937147 29.56119054 6.41937147 29.56119054 -0.703125 15.41015625 C-4.1383298 13.12001972 -5.688456 13.23172652 -9.703125 13.41015625 Z " fill="#FAFA00" transform="translate(814.703125,436.58984375)"/>
<path d="M0 0 C2.75679812 3.14415844 3.27817346 5.92004097 3.765625 9.94140625 C3.87624268 10.76938721 3.98686035 11.59736816 4.10083008 12.45043945 C4.4786858 15.44442311 4.8094677 18.44191156 5.140625 21.44140625 C5.27742676 22.55821777 5.41422852 23.6750293 5.55517578 24.82568359 C10.19026074 63.64647971 10.00784206 104.42865232 6.828125 143.37890625 C6.74011627 144.46809357 6.74011627 144.46809357 6.65032959 145.57928467 C6.00101031 153.2681236 4.98481717 160.88142939 3.67578125 168.484375 C3.55820969 169.17168198 3.44063812 169.85898895 3.31950378 170.56712341 C-1.3676878 196.44707887 -19.97464328 216.25248545 -39.96875 232.125 C-43.39151389 234.86783647 -46.72219643 237.70609783 -50.046875 240.56640625 C-50.64846436 241.08380371 -51.25005371 241.60120117 -51.86987305 242.13427734 C-57.43306104 246.91884592 -57.43306104 246.91884592 -62.9453125 251.76171875 C-64.34528234 252.99026371 -65.77107959 254.18954922 -67.2109375 255.37109375 C-72.18859833 259.57821885 -76.34275345 264.00709975 -80.171875 269.25390625 C-80.56810059 269.7857251 -80.96432617 270.31754395 -81.37255859 270.86547852 C-88.2594004 280.68667606 -90.59003417 290.25457753 -90.42578125 302.125 C-90.43141586 303.38353287 -90.43705048 304.64206573 -90.44285583 305.93873596 C-90.45918924 309.91906514 -90.44402154 313.89866756 -90.421875 317.87890625 C-90.40358889 321.88416625 -90.39616852 325.88875369 -90.41160583 329.89405823 C-90.4208802 332.37594329 -90.41174139 334.85798256 -90.38197327 337.33970642 C-90.38555344 338.46180008 -90.38913361 339.58389374 -90.39282227 340.73999023 C-90.38662369 341.72305649 -90.38042511 342.70612274 -90.3740387 343.71897888 C-91.03959454 347.45232303 -91.96810078 348.9622751 -94.859375 351.44140625 C-97.92631086 352.17243464 -100.92181791 352.1143812 -104.0625 352.07250977 C-104.99300171 352.07966507 -105.92350342 352.08682037 -106.88220215 352.0941925 C-109.95842564 352.11110318 -113.03319669 352.09166272 -116.109375 352.0703125 C-118.2464205 352.07114098 -120.38346594 352.07359956 -122.52050781 352.07762146 C-126.99954405 352.08048109 -131.47808069 352.0657617 -135.95703125 352.03833008 C-141.70082477 352.00424742 -147.44372475 352.01026416 -153.18756104 352.02899265 C-157.60049904 352.03955685 -162.01322882 352.03063002 -166.42614746 352.01560783 C-168.54406109 352.01042132 -170.66199643 352.01091349 -172.77990723 352.01715279 C-175.73916447 352.02259786 -178.69713888 352.0022521 -181.65625 351.97485352 C-182.53325562 351.98137939 -183.41026123 351.98790527 -184.31384277 351.99462891 C-187.90311196 351.93806815 -190.23911451 351.78922154 -193.40222168 350.01548767 C-195.66719463 346.01438173 -195.41634621 342.24676084 -195.37695312 337.72265625 C-195.3839624 336.73672989 -195.39097168 335.75080353 -195.39819336 334.73500061 C-195.415819 331.47018374 -195.40412677 328.20623224 -195.390625 324.94140625 C-195.39332031 322.6665836 -195.39720306 320.39176207 -195.40222168 318.11694336 C-195.40812437 313.34201115 -195.39953508 308.56737793 -195.38085938 303.79248047 C-195.35817329 297.69751903 -195.37112262 291.60326619 -195.39514923 285.5083313 C-195.40967486 280.80514289 -195.40496849 276.10211944 -195.39463806 271.39892578 C-195.39198404 269.15364497 -195.39519349 266.9083488 -195.40455627 264.66308594 C-195.47761293 242.19989812 -195.47761293 242.19989812 -190.859375 232.44140625 C-190.35277344 231.32765625 -189.84617187 230.21390625 -189.32421875 229.06640625 C-177.34925738 208.48539848 -157.86961301 196.09228793 -138.3125 183.515625 C-136.84886681 182.57436106 -135.38532331 181.63295763 -133.921875 180.69140625 C-133.21812744 180.23894531 -132.51437988 179.78648437 -131.78930664 179.3203125 C-125.9863175 175.56910676 -120.35323715 171.63654928 -114.859375 167.44140625 C-113.69148438 166.58869141 -113.69148438 166.58869141 -112.5 165.71875 C-109.59272337 163.21143894 -107.19837681 160.49377651 -104.70654297 157.58203125 C-99.85054079 151.95456269 -94.65746305 146.61566148 -89.54492188 141.22216797 C-88.20095226 139.80227886 -86.86475866 138.37503068 -85.53125 136.9453125 C-75.92069308 126.91076042 -65.01462646 118.47087908 -50.859375 117.44140625 C-50.82199219 116.73757813 -50.78460937 116.03375 -50.74609375 115.30859375 C-50.28381948 108.36541546 -49.14717309 101.83493406 -47.61328125 95.0546875 C-46.60665027 90.23016079 -45.99280134 85.39263854 -45.38671875 80.50390625 C-45.03261134 77.68209126 -44.62396939 74.874806 -44.17578125 72.06640625 C-42.76946853 63.2227559 -41.64038019 54.42523318 -40.83520508 45.50366211 C-37.77117923 12.20876747 -37.77117923 12.20876747 -24.859375 1.44140625 C-18.54433078 -2.85282382 -6.79670853 -3.70476325 0 0 Z M-18.484375 13.75390625 C-26.71263735 23.0648347 -26.36778783 37.49623394 -27.5390625 49.25390625 C-28.77015632 61.57856812 -29.9926313 73.77367684 -32.37646484 85.93603516 C-33.48332539 91.6785038 -34.50767971 97.43639678 -35.546875 103.19140625 C-35.77358887 104.41931885 -36.00030273 105.64723145 -36.23388672 106.91235352 C-36.44416504 108.07178467 -36.65444336 109.23121582 -36.87109375 110.42578125 C-37.06147217 111.46444336 -37.25185059 112.50310547 -37.44799805 113.57324219 C-37.83679708 116.28399055 -38.10964218 118.71304973 -37.859375 121.44140625 C-35.53335976 123.50242746 -35.53335976 123.50242746 -32.859375 125.44140625 C-28.80680578 130.91286062 -28.90162925 136.80183288 -29.51025391 143.34033203 C-32.65645956 162.27476968 -48.34264892 178.99092795 -60.859375 192.44140625 C-61.47167969 193.10785156 -62.08398438 193.77429688 -62.71484375 194.4609375 C-67.24932905 199.20812787 -72.24217856 203.16073121 -77.42871094 207.1550293 C-83.56724393 211.91493777 -89.22878042 217.09782848 -94.859375 222.44140625 C-95.82423828 223.30958984 -95.82423828 223.30958984 -96.80859375 224.1953125 C-104.0346236 230.91602558 -109.81029205 239.67748059 -114.609375 248.25390625 C-116.859375 251.44140625 -116.859375 251.44140625 -119.984375 252.56640625 C-122.859375 252.44140625 -122.859375 252.44140625 -125.859375 250.44140625 C-127.22389495 243.86690103 -124.82058028 239.89121508 -121.26831055 234.37084961 C-117.76898079 229.13511289 -113.94199649 224.22986407 -109.859375 219.44140625 C-109.23417969 218.68214844 -108.60898438 217.92289063 -107.96484375 217.140625 C-103.68499974 212.09372137 -99.0260104 207.9379765 -93.8515625 203.82421875 C-88.93499297 199.90893492 -84.1545023 195.83554794 -79.38330078 191.74511719 C-77.99411813 190.55667833 -76.59707607 189.3774421 -75.19921875 188.19921875 C-61.65814206 176.48221737 -43.02571917 156.5872687 -41.66015625 137.68359375 C-41.66653914 135.37838958 -41.66653914 135.37838958 -43.171875 133.69140625 C-46.85236504 130.96511733 -50.4478426 131.01448376 -54.859375 131.44140625 C-61.45334417 133.9493166 -66.42834288 138.48484834 -71.51171875 143.24609375 C-73.4739034 145.08094862 -75.46989434 146.80329121 -77.546875 148.50390625 C-79.95413933 150.55094577 -82.04037467 152.70820362 -84.09765625 155.10546875 C-98.87688324 172.1569265 -113.77146508 184.3224838 -132.79736328 196.31665039 C-162.47616102 214.62549425 -162.47616102 214.62549425 -180.45342159 243.41724014 C-180.86839846 245.48639906 -180.98247902 247.34443122 -180.97962952 249.45306396 C-180.98100418 250.24107895 -180.98237885 251.02909393 -180.98379517 251.84098816 C-180.98019989 252.69622574 -180.97660461 253.55146332 -180.97290039 254.43261719 C-180.97304642 255.34028336 -180.97319244 256.24794952 -180.9733429 257.18312073 C-180.97264671 260.18069862 -180.96486802 263.17821423 -180.95703125 266.17578125 C-180.95516603 268.25514695 -180.95374262 270.3345131 -180.95274353 272.41387939 C-180.94892657 277.88504247 -180.93910326 283.35617897 -180.92803955 288.82733154 C-180.91600867 295.39274039 -180.91141928 301.95815812 -180.90558624 308.52357483 C-180.8958911 318.49620378 -180.87672877 328.46877443 -180.859375 338.44140625 C-155.779375 338.44140625 -130.699375 338.44140625 -104.859375 338.44140625 C-104.68929525 322.57207576 -104.68929525 322.57207576 -104.56152344 306.70239258 C-104.24615118 280.32777807 -95.38220819 263.36159786 -76.44140625 244.828125 C-73.05455324 241.6974636 -69.51400338 238.80284751 -65.9140625 235.921875 C-57.04408922 228.71927522 -48.48430527 221.10036809 -40.046875 213.3984375 C-38.67980646 212.17539939 -37.2870951 210.97978204 -35.859375 209.828125 C-17.20984218 194.67537959 -10.22768604 174.26588702 -7.671875 151.12890625 C-5.80662809 131.16128371 -5.67119891 111.16044998 -5.67407227 91.12280273 C-5.67415351 88.13218131 -5.66719477 85.14171313 -5.65356445 82.15112305 C-5.54845178 58.71574575 -6.64666504 35.68228679 -9.859375 12.44140625 C-14.33210396 12.2741561 -14.33210396 12.2741561 -18.484375 13.75390625 Z " fill="#FAFA00" transform="translate(1204.859375,437.55859375)"/>
<path d="M0 0 C45.64744638 -0.55460954 45.64744638 -0.55460954 60 12 C64.92765893 17.66886668 65.41271425 23.29945603 65.33984375 30.5703125 C64.64903428 37.54192992 61.62663873 42.85885222 56.4375 47.5 C54.09298642 49.36261587 51.70554297 50.72123133 49 52 C49.65226562 52.27972656 50.30453125 52.55945313 50.9765625 52.84765625 C58.24387464 56.18118733 64.04688243 60.29795012 67 68 C67.96569999 78.17353713 67.92521073 88.02310579 61.15234375 96.2421875 C53.8294314 103.49864874 44.99659195 106.16435307 34.828125 106.42578125 C32.30184967 106.41011877 29.77562791 106.37179609 27.25 106.3125 C25.27616333 106.28820923 25.27616333 106.28820923 23.26245117 106.26342773 C-1.33517794 105.88827402 -1.33517794 105.88827402 -7 104 C-7.02722517 101.79173622 -7.04649729 99.58337362 -7.0625 97.375 C-7.07410156 96.14523437 -7.08570313 94.91546875 -7.09765625 93.6484375 C-7 90 -7 90 -6.53442383 87.40161133 C-5.83010668 82.91862788 -5.59963571 78.45396945 -5.3515625 73.92578125 C-5.23364331 71.89053414 -5.1155537 69.8552969 -4.99731445 67.82006836 C-4.93661774 66.75690399 -4.87592102 65.69373962 -4.81338501 64.59835815 C-3.57671423 43.02803911 -2.01204232 21.51138498 0 0 Z " fill="#F4F4F2" transform="translate(1431,869)"/>
<path d="M0 0 C50.79354839 0 50.79354839 0 60.86328125 9.81640625 C61.58064453 10.68072266 61.58064453 10.68072266 62.3125 11.5625 C63.04919922 12.43068359 63.04919922 12.43068359 63.80078125 13.31640625 C67.51088362 18.5250516 66.47439235 25.94490871 66 32 C64.11151481 39.21524503 60.18666888 43.87555408 54 48 C53.01 48 52.02 48 51 48 C51 48.66 51 49.32 51 50 C51.99 50.04125 52.98 50.0825 54 50.125 C60.07932814 50.98819061 64.38991023 55.2204271 68.375 59.625 C73.11178846 66.54799852 72.77867779 73.86465172 72 82 C70.63519794 88.69444049 67.69139252 93.23497839 62.3515625 97.46484375 C43.01334419 110.08929524 24.53956368 105 0 105 C0 70.35 0 35.7 0 0 Z " fill="#F6F6F4" transform="translate(982,853)"/>
<path d="M0 0 C0.90070724 0.02009628 1.80141449 0.04019257 2.72941589 0.06089783 C3.69825211 0.08793289 4.66708832 0.11496796 5.6652832 0.14282227 C7.15714897 0.17823875 7.15714897 0.17823875 8.67915344 0.21437073 C11.85826951 0.29099229 15.03714108 0.37502339 18.21606445 0.45922852 C20.37034933 0.51245069 22.52464617 0.56519108 24.67895508 0.61743164 C29.96231327 0.74660549 35.24546402 0.88242524 40.52856445 1.02172852 C40.52856445 4.32172852 40.52856445 7.62172852 40.52856445 11.02172852 C35.57856445 11.35172852 30.62856445 11.68172852 25.52856445 12.02172852 C26.35356445 13.21797852 27.17856445 14.41422852 28.02856445 15.64672852 C31.49081691 21.92824369 31.50550412 28.02429886 30.52856445 35.02172852 C27.94945467 43.48620775 22.89093634 48.49155282 15.40356445 52.83422852 C7.34494187 56.16279002 -1.01982902 55.2510531 -9.47143555 54.02172852 C-11.95335647 56.60706281 -12.46369219 57.94816663 -12.84643555 61.58422852 C-12.77022186 64.94222154 -12.77022186 64.94222154 -11.09643555 66.89672852 C-7.50857672 69.38063078 -4.75299513 69.1743529 -0.40893555 69.23266602 C1.04289792 69.2607723 2.49472065 69.28943692 3.9465332 69.31860352 C6.22598532 69.35956052 8.50524544 69.39645601 10.78491211 69.4230957 C32.36141317 69.69687323 32.36141317 69.69687323 39.09106445 75.95922852 C43.02412823 80.90077018 43.00609014 85.71821777 42.9230957 91.92016602 C42.12952332 98.15874496 38.86022517 102.0281586 34.18481445 106.02563477 C21.79146359 115.18676912 8.45250818 115.96907165 -6.47143555 115.02172852 C-13.8272074 113.82078617 -19.72713243 111.06271305 -24.78393555 105.45922852 C-28.25666168 100.44306855 -28.31952601 94.91909829 -27.47143555 89.02172852 C-25.29354742 84.34202586 -22.77123579 80.88826201 -18.47143555 78.02172852 C-19.54241062 75.79739567 -20.56125301 73.90772943 -22.09643555 71.95922852 C-24.24985943 67.35873204 -24.3657375 62.99931611 -23.47143555 58.02172852 C-21.8273189 54.98130412 -19.86384539 52.50670184 -17.47143555 50.02172852 C-18.79976265 47.25438039 -20.28397637 44.70878543 -21.97143555 42.14672852 C-26.05295065 35.59704057 -27.38936356 29.70211354 -26.47143555 22.02172852 C-24.43672611 14.65047578 -19.84497168 7.80342613 -13.34643555 3.67016602 C-8.92203323 1.4091663 -5.02129607 -0.1265873 0 0 Z " fill="#F3F3F2" transform="translate(873.471435546875,879.978271484375)"/>
<path d="M0 0 C3.96 0 7.92 0 12 0 C12.30503434 22.14068275 11.42298704 44.117772 10.20404053 66.21923828 C10.01288696 69.72149474 9.82974319 73.2241517 9.6467371 76.72684193 C9.46819536 80.1354247 9.28646705 83.54383116 9.10360527 86.95218468 C9.01731581 88.56158016 8.9316046 90.17100678 8.84651375 91.78046608 C8.72755587 94.01503224 8.60471263 96.24935121 8.48071289 98.48364258 C8.41187393 99.74630447 8.34303497 101.00896637 8.27210999 102.30989075 C7.98260491 106.23589646 7.51938438 110.09847034 7 114 C3.7 114 0.4 114 -3 114 C-3 110.7 -3 107.4 -3 104 C-3.94359375 104.70576172 -3.94359375 104.70576172 -4.90625 105.42578125 C-14.9011772 112.69618763 -22.383648 115.49012032 -35 114 C-42.9358484 111.57725117 -49.23509365 106.58902638 -53.50390625 99.50390625 C-57.73504743 91.39120535 -58.22950104 84.4163534 -58.3125 75.375 C-58.34150391 74.34503906 -58.37050781 73.31507813 -58.40039062 72.25390625 C-58.49983762 60.09077407 -54.56185257 50.76994515 -46.15234375 42.09375 C-39.89197311 36.21920737 -33.80583756 32.84768212 -25.125 32.5 C-15.5098365 32.85566294 -9.35043983 35.87463347 -2 42 C-1.34 28.14 -0.68 14.28 0 0 Z " fill="#F5F5F3" transform="translate(1340,854)"/>
<path d="M0 0 C8.10336413 -0.43916834 14.92827769 2.22996568 21.296875 7.19140625 C29.64443463 15.08272274 32.81860599 26.16924342 33.2265625 37.3125 C33.2569223 38.81367805 33.28032088 40.31501249 33.296875 41.81640625 C33.30638184 42.52112061 33.31588867 43.22583496 33.32568359 43.9519043 C33.25992004 54.38273446 29.81070282 64.58047329 23.00390625 72.59765625 C16.56514921 78.70592841 9.594285 82.25394362 0.671875 82.75390625 C-6.84972169 82.48604312 -13.75764477 79.32172641 -19.953125 75.19140625 C-19.80875 76.49851562 -19.664375 77.805625 -19.515625 79.15234375 C-18.27718279 90.8844313 -17.69392445 102.39778103 -17.953125 114.19140625 C-23.893125 114.68640625 -23.893125 114.68640625 -29.953125 115.19140625 C-30.87099705 107.62099252 -31.41166888 100.05116231 -31.890625 92.44140625 C-31.93292236 91.78122498 -31.97521973 91.1210437 -32.01879883 90.44085693 C-32.79755417 78.28165415 -33.44515049 66.11661287 -34.07583618 53.94897461 C-34.64935327 42.94498123 -35.35630669 31.96500063 -36.34375 20.98876953 C-36.83918499 15.36218625 -37.03382803 9.84061868 -36.953125 4.19140625 C-33.323125 4.19140625 -29.693125 4.19140625 -25.953125 4.19140625 C-25.293125 6.83140625 -24.633125 9.47140625 -23.953125 12.19140625 C-23.39625 11.7325 -22.839375 11.27359375 -22.265625 10.80078125 C-15.3228462 5.21841181 -9.00024224 0.88202374 0 0 Z " fill="#F3F3F2" transform="translate(615.953125,889.80859375)"/>
<path d="M0 0 C8.15522062 6.31223291 12.03099538 13.40555895 14.25 23.375 C14.6344474 26.90981667 14.67198709 30.38475368 14.625 33.9375 C14.63660156 34.81857422 14.64820313 35.69964844 14.66015625 36.60742188 C14.61446194 46.92672065 11.17987452 56.76925559 4.3125 64.578125 C-4.13395949 72.72292523 -13.08467118 75.01643953 -24.53857422 74.91845703 C-30.84007427 74.64558525 -35.57260759 73.05778668 -40.75 69.375 C-41.39195313 68.94058594 -42.03390625 68.50617188 -42.6953125 68.05859375 C-47.83448206 64.15415974 -50.86657712 59.07194461 -53.75 53.375 C-54.09289063 52.69953125 -54.43578125 52.0240625 -54.7890625 51.328125 C-59.16056431 40.78749446 -57.84488057 25.79566381 -53.75 15.375 C-49.04262802 5.42380338 -41.57567547 -1.62796433 -31.25 -5.625 C-20.03989628 -8.70228337 -9.47650118 -6.4286535 0 0 Z " fill="#F4F4F2" transform="translate(1251.75,889.625)"/>
<path d="M0 0 C6.90565727 5.71668324 11.1248099 14.2982298 13 23 C14.14971036 37.55254602 12.88103812 49.98328783 4 62 C-2.13665817 69.05647047 -10.25845362 73.27595543 -19.53125 74.4453125 C-30.07473742 74.78912187 -37.29483637 72.58685897 -45.3125 65.75 C-49.36634344 61.85500622 -52.60992472 58.10077042 -55 53 C-55.31710937 52.33355469 -55.63421875 51.66710937 -55.9609375 50.98046875 C-59.7688037 41.00665407 -59.77756768 26.89207287 -56.375 16.8125 C-55.25390625 14.31640625 -55.25390625 14.31640625 -54 12 C-53.57589844 11.20464844 -53.15179687 10.40929687 -52.71484375 9.58984375 C-48.42463738 2.43153284 -41.65734859 -4.01179536 -33.5390625 -6.55078125 C-20.81254981 -8.80239503 -10.70441073 -7.39013336 0 0 Z " fill="#F5F5F3" transform="translate(1167,888)"/>
<path d="M0 0 C6.12694574 6.41870506 7.82265693 13.37956437 7.8125 22.05859375 C7.81169434 22.79476425 7.81088867 23.53093475 7.81005859 24.28941345 C7.70255407 34.50504398 6.61675643 44.6528207 5.625 54.8125 C5.43156647 56.85474915 5.23885377 58.89706671 5.046875 60.93945312 C4.58119707 65.87712769 4.10586479 70.81378227 3.625 75.75 C-0.005 75.42 -3.635 75.09 -7.375 74.75 C-7.375 71.78 -7.375 68.81 -7.375 65.75 C-8.33277344 66.3275 -9.29054688 66.905 -10.27734375 67.5 C-20.36646169 73.25533079 -28.78879772 75.66933048 -40.375 73.75 C-46.53775945 71.74208339 -50.29244273 68.61765554 -53.5 63 C-56.08183725 56.84047398 -56.58242228 51.49411681 -54.5234375 45.109375 C-50.86660062 36.80064358 -45.4217465 32.77566072 -37.125 29.5 C-26.22433426 25.90637393 -15.73425806 25.47067398 -4.375 25.75 C-5.24299887 15.02647448 -5.24299887 15.02647448 -11.375 6.75 C-18.00394075 3.56365201 -25.00687672 3.65803451 -31.94140625 5.90625 C-34.19812417 6.81398011 -36.43970416 7.76075859 -38.66015625 8.75390625 C-41.375 9.75 -41.375 9.75 -44.375 8.75 C-47.375 3.52777778 -47.375 3.52777778 -47.375 0.75 C-31.8412799 -6.13635307 -15.00520622 -11.03874273 0 0 Z " fill="#F4F4F2" transform="translate(1567.375,909.25)"/>
<path d="M0 0 C5.99907576 5.38074997 10.53201936 13.66939185 12.03125 21.59765625 C12.09956987 24.01344685 12.11612642 26.43100338 12.09375 28.84765625 C12.08472656 30.1109375 12.07570313 31.37421875 12.06640625 32.67578125 C12.05480469 33.64 12.04320312 34.60421875 12.03125 35.59765625 C6.39432551 36.17434725 0.75672437 36.74371849 -4.8815918 37.30664062 C-6.79520065 37.49869432 -8.70861823 37.69266467 -10.62182617 37.88867188 C-31.0235004 39.97623551 -31.0235004 39.97623551 -39.96875 39.59765625 C-36.78623909 50.05931445 -33.67522836 57.66688934 -24.22265625 63.71484375 C-16.16299022 66.87166268 -5.93127281 64.85861041 1.76171875 61.66796875 C3.8680893 60.67460295 5.95694073 59.65626926 8.03125 58.59765625 C12.0507012 62.9825121 12.0507012 62.9825121 11.96875 65.57421875 C9.92320324 69.98919051 4.24813982 71.65754456 0.03125 73.59765625 C-9.10139899 76.94629421 -20.89600966 77.30042674 -29.98828125 73.6328125 C-39.39793753 68.71455034 -46.62645223 61.19710834 -50.19140625 51.16015625 C-54.04843983 38.4455129 -54.58168147 26.15404076 -48.71484375 14 C-43.95430305 5.39989513 -37.2660648 -0.95064604 -27.96875 -4.40234375 C-18.01218259 -6.80287537 -8.48221386 -6.0418944 0 0 Z " fill="#F4F4F2" transform="translate(464.96875,908.40234375)"/>
<path d="M0 0 C0.886875 0.721875 1.77375 1.44375 2.6875 2.1875 C1.4383258 5.64675163 0.01222205 8.33443203 -2.3125 11.1875 C-6.32240777 9.63527764 -10.22298854 7.88372277 -14.12890625 6.08984375 C-21.18553712 3.17377625 -29.16259439 2.96493942 -36.25 5.875 C-40.60562064 8.06449803 -43.13018443 10.82286887 -45.3125 15.1875 C-45.84888074 19.58406347 -45.68586263 23.2354253 -44.0625 27.375 C-36.19256323 35.42379897 -23.79526147 38.30245712 -13.38598633 41.76489258 C-5.06816548 44.6157768 3.42484761 47.97627543 8.1875 55.8125 C8.6515625 56.54726563 9.115625 57.28203125 9.59375 58.0390625 C12.86520946 64.46514358 12.80507862 72.92792893 11.00390625 79.79296875 C6.7348309 90.08480601 -0.18837299 94.87395255 -10 99.4375 C-21.64094878 103.21294285 -35.31938564 102.39635859 -46.3125 97.1875 C-56.90703994 91.40388018 -56.90703994 91.40388018 -58.3125 87.1875 C-57.31640625 85.36328125 -57.31640625 85.36328125 -55.875 83.5 C-55.16537109 82.56607422 -55.16537109 82.56607422 -54.44140625 81.61328125 C-54.06886719 81.14277344 -53.69632812 80.67226563 -53.3125 80.1875 C-48.40338614 82.05893015 -43.8166492 84.44198043 -39.15234375 86.84765625 C-31.86377424 90.28641738 -23.12476057 90.35410862 -15.34765625 88.46875 C-9.70274981 86.36358188 -5.0940946 83.7506892 -2.3125 78.1875 C-1.74528949 72.32092277 -1.39182973 67.02884053 -4.0625 61.6875 C-8.27582904 57.77512304 -14.00720957 56.12164141 -19.3125 54.1875 C-50.53363073 42.71482502 -50.53363073 42.71482502 -56.3125 33.1875 C-59.24694345 26.01892879 -59.95596037 17.09494911 -57.47265625 9.6796875 C-52.79471435 1.64685797 -45.01936271 -3.90500186 -36.3125 -6.8125 C-23.38887131 -9.97398272 -10.87470989 -7.6428684 0 0 Z " fill="#F5F5F3" transform="translate(551.3125,876.8125)"/>
<path d="M0 0 C3.96 0.33 7.92 0.66 12 1 C12.1090331 7.56112937 11.71265895 13.89748408 10.9765625 20.4140625 C10.87032562 21.38677094 10.76408875 22.35947937 10.65463257 23.36166382 C10.42990992 25.41079383 10.20287269 27.4596712 9.97363281 29.50830078 C9.62837377 32.59483929 9.29009927 35.68207839 8.953125 38.76953125 C7.88470282 48.48674969 6.76905437 58.18474211 5.34521484 67.85693359 C4.97141392 71.26026675 4.94225331 74.57891346 5 78 C5.40454407 77.59323532 5.80908813 77.18647064 6.22589111 76.76737976 C10.44068673 72.53044341 14.65901184 68.29704481 18.87939453 64.06567383 C20.45354359 62.48649917 22.02679353 60.90642772 23.59912109 59.32543945 C25.86058991 57.05182756 28.12528307 54.78147083 30.390625 52.51171875 C31.09181458 51.80536789 31.79300415 51.09901703 32.51544189 50.3712616 C33.17582458 49.71080338 33.83620728 49.05034515 34.51660156 48.36987305 C35.09396057 47.79029343 35.67131958 47.21071381 36.26617432 46.61357117 C41.20522546 42.01708226 41.20522546 42.01708226 45.453125 41.92578125 C47.33257813 42.11720703 47.33257813 42.11720703 49.25 42.3125 C50.51328125 42.43238281 51.7765625 42.55226563 53.078125 42.67578125 C54.04234375 42.78277344 55.0065625 42.88976562 56 43 C53.73654406 45.92917828 51.55801706 48.53899301 48.6875 50.875 C43.51028446 55.26630047 38.82672634 60.15188534 34.10424805 65.02099609 C33.47429932 65.66246582 32.84435059 66.30393555 32.1953125 66.96484375 C31.34477295 67.84064087 31.34477295 67.84064087 30.47705078 68.73413086 C29 70 29 70 27 70 C28.10093671 72.30389705 29.20207847 74.60769575 30.3034668 76.91137695 C31.27674288 78.9474541 32.24955364 80.98375374 33.22192383 83.02026367 C35.93354731 88.69544315 38.65766605 94.36416223 41.40234375 100.0234375 C41.95116211 101.15789307 42.49998047 102.29234863 43.06542969 103.46118164 C44.13715033 105.67543649 45.21196508 107.88819673 46.29003906 110.09936523 C46.77569336 111.10427002 47.26134766 112.1091748 47.76171875 113.14453125 C48.410802 114.48028198 48.410802 114.48028198 49.07299805 115.84301758 C50 118 50 118 50 120 C45.71 119.67 41.42 119.34 37 119 C28.09 99.695 28.09 99.695 19 80 C16.69 81.98 14.38 83.96 12 86 C11.22011719 86.65226563 10.44023438 87.30453125 9.63671875 87.9765625 C8.99347656 88.52054688 8.35023437 89.06453125 7.6875 89.625 C7.03136719 90.17414063 6.37523437 90.72328125 5.69921875 91.2890625 C1.56581606 95.45097141 1.44061593 100.15874749 0.875 105.75 C0.78863281 106.54277344 0.70226563 107.33554687 0.61328125 108.15234375 C0.40199946 110.10083141 0.20007533 112.05032976 0 114 C-3.96 114 -7.92 114 -12 114 C-12.30721105 105.327871 -11.2593331 96.9275284 -10.14859009 88.34985352 C-9.56347216 83.82362391 -9.00018997 79.29468958 -8.4375 74.765625 C-8.31933426 73.81623047 -8.20116852 72.86683594 -8.079422 71.88867188 C-6.47198429 58.86650189 -5.09405189 45.81888982 -3.70043945 32.77246094 C-3.50478383 30.94205047 -3.3090659 29.11164667 -3.11328125 27.28125 C-2.97361687 25.97417084 -2.97361687 25.97417084 -2.83113098 24.64068604 C-1.94767286 16.41991252 -0.98688426 8.20892902 0 0 Z " fill="#F5F5F3" transform="translate(1693,883)"/>
<path d="M0 0 C5.56238225 4.18426959 9.00688433 10.083153 11.1875 16.625 C12.24972269 29.2852293 12.38619007 41.07548843 4.4375 51.5 C-0.11415627 56.31337651 -5.05800196 58.78240218 -11.6875 59.25 C-17.74735259 58.9516688 -22.27358875 56.56915736 -26.8125 52.625 C-34.11690438 43.56995325 -35.71904638 33.99280381 -34.8125 22.625 C-33.50428735 14.46790936 -30.52268859 6.8234644 -24.23046875 1.21484375 C-17.26262722 -3.70674559 -7.33636652 -4.41425443 0 0 Z " fill="#030738" transform="translate(1155.8125,893.375)"/>
<path d="M0 0 C6.69725097 2.95199217 10.72413768 8.75780061 13.44921875 15.38671875 C16.46709421 25.83182065 15.60418348 37.77979854 10.57421875 47.38671875 C7.6530241 52.4944881 4.40507459 56.41036654 -1.08984375 58.7578125 C-6.63614765 60.25104817 -12.43198882 60.5725716 -17.83203125 58.43359375 C-24.23797782 54.65695361 -28.04232593 49.4991446 -30.6640625 42.59765625 C-33.36038453 31.23162186 -32.27709033 19.40160315 -26.67578125 9.19921875 C-19.38865587 0.09031202 -11.71001977 -2.96050419 0 0 Z " fill="#030737" transform="translate(1239.42578125,894.61328125)"/>
<path d="M0 0 C0.92619141 0.39977051 0.92619141 0.39977051 1.87109375 0.80761719 C4.1210345 2.0038885 5.45518769 2.95937908 7 5 C7.7737475 9.3369963 7.37957544 13.50528246 7 17.875 C6.9182251 19.08704102 6.8364502 20.29908203 6.75219727 21.54785156 C6.58869099 23.94980211 6.41265597 26.35093778 6.22314453 28.75097656 C6.03628009 31.47175555 5.95006494 34.14197488 5.96484375 36.8671875 C5.90281282 45.67558022 5.90281282 45.67558022 3.40234375 49.34375 C1.37137559 51.25340793 -0.57998612 52.62647861 -3 54 C-4.093125 54.639375 -5.18625 55.27875 -6.3125 55.9375 C-12.38573582 57.68741541 -18.18541535 57.86602605 -24.25 56 C-30.43273189 51.50346772 -34.70472538 46.40688342 -36.56640625 38.90234375 C-38.25685269 27.5870131 -37.95400843 16.24230718 -31.1875 6.6875 C-22.22616543 -4.292353 -12.75194926 -6.62266412 0 0 Z " fill="#040838" transform="translate(1331,901)"/>
<path d="M0 0 C3.63 0.33 7.26 0.66 11 1 C11.33 4.3 11.66 7.6 12 11 C12.71285156 10.51789062 13.42570312 10.03578125 14.16015625 9.5390625 C23.30049175 3.5111158 30.92941266 0.62145164 42 2 C48.7760907 4.24324754 53.56123316 7.31415978 56.89453125 13.71875 C58.95564152 18.61271045 59.22298464 23.4210207 59.19921875 28.671875 C59.1970787 29.41167603 59.19493866 30.15147705 59.19273376 30.91369629 C59.08858674 39.50754585 58.09878685 47.97763404 57.0625 56.5 C56.87735695 58.08062421 56.69310976 59.66135362 56.50976562 61.2421875 C56.1638716 64.21414078 55.81334764 67.18547006 55.45751953 70.15625 C54.9482012 74.43517626 54.46669304 78.71624914 54 83 C52.14375 83.0309375 52.14375 83.0309375 50.25 83.0625 C49.55390625 83.07410156 48.8578125 83.08570313 48.140625 83.09765625 C45.96707597 82.99849799 44.08693463 82.59693851 42 82 C42.56176147 70.0480405 43.72442912 58.16463606 44.98364258 46.26928711 C47.33115868 31.03781996 47.33115868 31.03781996 43 17 C38.76553799 13.1625188 34.4575493 12.49149765 28.90234375 12.5078125 C23.23989201 13.46806677 18.7429011 16.92615501 14 20 C12.67276384 20.6787241 11.34046636 21.3477944 10 22 C10.02247803 22.69915527 10.04495605 23.39831055 10.06811523 24.11865234 C10.23399493 33.80082828 9.35056764 43.28549605 8.34594727 52.90576172 C8.05948844 55.65389126 7.78392393 58.40296241 7.50976562 61.15234375 C7.33135798 62.90631407 7.15234419 64.66022287 6.97265625 66.4140625 C6.89032242 67.23274811 6.80798859 68.05143372 6.72315979 68.89492798 C6.38726012 72.07998156 6.01620289 74.95139134 5 78 C3.14375 78.0309375 3.14375 78.0309375 1.25 78.0625 C0.55390625 78.07410156 -0.1421875 78.08570313 -0.859375 78.09765625 C-3.03292403 77.99849799 -4.91306537 77.59693851 -7 77 C-6.62340655 63.06604242 -5.10783638 49.30259507 -3.52148438 35.46679688 C-3.34361943 33.91407745 -3.16588378 32.36134321 -2.98828125 30.80859375 C-2.90168243 30.05154144 -2.81508362 29.29448914 -2.7258606 28.51449585 C-1.64960789 19.02502937 -0.79654257 9.51658754 0 0 Z " fill="#F5F5F3" transform="translate(1602,910)"/>
<path d="M0 0 C7.07331425 4.43815796 10.27692433 11.06018674 12.1875 19 C12.60272522 22.49139132 12.66555633 25.92410843 12.625 29.4375 C12.61670166 30.36256348 12.60840332 31.28762695 12.59985352 32.24072266 C12.35478458 42.11150648 10.25663876 48.6850076 3.06640625 55.625 C-2.67981256 59.8301331 -8.96953283 59.71316283 -15.8125 59 C-20.5868405 57.63590271 -24.68663599 55.75057601 -28.8125 53 C-29.33666992 50.65600586 -29.33666992 50.65600586 -29.54296875 47.71484375 C-29.62450195 46.63444824 -29.70603516 45.55405273 -29.79003906 44.44091797 C-29.85932617 43.28479004 -29.92861328 42.12866211 -30 40.9375 C-30.0731543 39.7633252 -30.14630859 38.58915039 -30.22167969 37.37939453 C-30.36221336 35.0165507 -30.4952702 32.65324953 -30.62060547 30.28955078 C-30.78664941 27.4431436 -31.01985111 24.61571448 -31.28515625 21.77734375 C-32.04400982 11.645183 -32.04400982 11.645183 -28.7890625 7.296875 C-26.23640519 5.16582776 -23.73867734 3.56712069 -20.8125 2 C-19.843125 1.34 -18.87375 0.68 -17.875 0 C-11.87801123 -1.95820041 -6.04867843 -1.5865386 0 0 Z " fill="#030737" transform="translate(623.8125,902)"/>
<path d="M0 0 C5.90536734 5.15002966 9.20903167 12.27323827 10.07397461 19.97631836 C10.1385083 21.28093018 10.20304199 22.58554199 10.26953125 23.9296875 C10.32475197 25.02179787 10.32475197 25.02179787 10.38108826 26.13597107 C10.8525332 36.09328627 11.03723823 46.06178982 11.2421875 56.02734375 C11.28552088 58.02149062 11.32913903 60.01563132 11.37304688 62.00976562 C11.47853198 66.82806046 11.58020338 71.64642143 11.6796875 76.46484375 C7.7196875 76.46484375 3.7596875 76.46484375 -0.3203125 76.46484375 C-0.3704248 75.00256348 -0.42053711 73.5402832 -0.47216797 72.03369141 C-0.66149371 66.57276493 -0.86163986 61.11227803 -1.06494141 55.65185547 C-1.15119634 53.29518975 -1.2345748 50.93841683 -1.31494141 48.58154297 C-1.43143093 45.18033639 -1.55849679 41.77965849 -1.6875 38.37890625 C-1.72092499 37.33683014 -1.75434998 36.29475403 -1.78878784 35.22109985 C-2.11523089 22.59789452 -2.11523089 22.59789452 -7.3203125 11.46484375 C-12.20708162 8.36805972 -17.75165426 8.88523374 -23.3203125 9.46484375 C-26.10301031 10.34664742 -28.02447889 11.69592277 -30.3203125 13.46484375 C-31.04605469 13.85800781 -31.77179687 14.25117187 -32.51953125 14.65625 C-35.22339223 16.38804228 -36.5825947 17.74178774 -38.3203125 20.46484375 C-38.59948226 23.24497916 -38.67842651 25.68294555 -38.57421875 28.44921875 C-38.55907227 29.23509369 -38.54392578 30.02096863 -38.52832031 30.83065796 C-38.47549763 33.3760666 -38.39775618 35.9200773 -38.3203125 38.46484375 C-38.28252094 40.17297328 -38.24663332 41.881146 -38.21264648 43.58935547 C-38.10504936 48.75689003 -37.96463686 53.92322535 -37.8203125 59.08984375 C-37.77191527 60.88671283 -37.72373722 62.68358784 -37.67578125 64.48046875 C-37.55980418 68.80866576 -37.44091088 73.13677315 -37.3203125 77.46484375 C-41.2803125 77.46484375 -45.2403125 77.46484375 -49.3203125 77.46484375 C-50.36311384 73.29363838 -50.5269816 69.43878784 -50.6015625 65.17578125 C-50.61997192 64.35848541 -50.63838135 63.54118958 -50.65734863 62.6991272 C-50.71595034 60.07943782 -50.76864971 57.45967848 -50.8203125 54.83984375 C-50.8895001 51.43089954 -50.96201038 48.02205704 -51.0390625 44.61328125 C-51.05812149 43.7693985 -51.07718048 42.92551575 -51.09681702 42.05606079 C-51.25965865 35.52606042 -51.59307058 29.01437273 -51.98338318 22.49450684 C-52.28235466 17.43006673 -52.42892291 12.41198899 -52.3828125 7.33984375 C-52.37830078 6.65792969 -52.37378906 5.97601562 -52.36914062 5.2734375 C-52.35785254 3.67053003 -52.33996569 2.06767048 -52.3203125 0.46484375 C-48.6903125 0.46484375 -45.0603125 0.46484375 -41.3203125 0.46484375 C-40.9903125 3.76484375 -40.6603125 7.06484375 -40.3203125 10.46484375 C-39.63066406 9.8615625 -38.94101562 9.25828125 -38.23046875 8.63671875 C-27.61961548 -0.3876009 -13.84009801 -8.3456385 0 0 Z " fill="#F5F5F3" transform="translate(814.3203125,884.53515625)"/>
<path d="M0 0 C1.09248047 0.0009668 1.09248047 0.0009668 2.20703125 0.00195312 C7.59351504 0.04675752 7.59351504 0.04675752 9.875 1.1875 C9.545 4.1575 9.215 7.1275 8.875 10.1875 C7.55435547 10.20876953 7.55435547 10.20876953 6.20703125 10.23046875 C4.46486328 10.30201172 4.46486328 10.30201172 2.6875 10.375 C1.53894531 10.40980469 0.39039063 10.44460938 -0.79296875 10.48046875 C-5.24011276 11.4241183 -6.61601573 12.36785231 -9.125 16.1875 C-9.72054636 20.14613172 -9.59598402 24.00864082 -9.4375 28 C-9.41494141 29.07443359 -9.39238281 30.14886719 -9.36914062 31.25585938 C-9.31035598 33.9011685 -9.22823957 36.54361413 -9.125 39.1875 C-7.98381714 38.94302124 -7.98381714 38.94302124 -6.81958008 38.69360352 C-3.76135979 38.11920009 -0.92184801 38.09083134 2.1875 38.125 C3.79044922 38.13853516 3.79044922 38.13853516 5.42578125 38.15234375 C6.23402344 38.16394531 7.04226563 38.17554688 7.875 38.1875 C7.875 41.4875 7.875 44.7875 7.875 48.1875 C2.925 48.5175 -2.025 48.8475 -7.125 49.1875 C-6.94324219 51.07500977 -6.76148438 52.96251953 -6.57421875 54.90722656 C-5.97394366 61.14559851 -5.37542064 67.38413661 -4.77809143 73.62279129 C-4.41589 77.40503757 -4.0529869 81.18721377 -3.68847656 84.96923828 C-3.33669067 88.6195095 -2.98675276 92.26995359 -2.63809204 95.9205246 C-2.50478836 97.31282611 -2.37082043 98.70506419 -2.23617554 100.09723663 C-2.0476158 102.04805339 -1.8616425 103.99911961 -1.67578125 105.95019531 C-1.51589722 107.61565399 -1.51589722 107.61565399 -1.3527832 109.3147583 C-1.125 112.1875 -1.125 112.1875 -1.125 116.1875 C-4.00711302 117.14820434 -5.82350044 117.29331883 -8.8125 117.25 C-9.57409424 117.2389624 -10.33568848 117.2279248 -11.12036133 117.21655273 C-11.78189209 117.20696533 -12.44342285 117.19737793 -13.125 117.1875 C-14.61744264 109.60932665 -15.66638862 102.0720232 -16.4140625 94.38671875 C-16.52221283 93.30671097 -16.63036316 92.22670319 -16.74179077 91.1139679 C-16.96737312 88.85117492 -17.19078718 86.5881648 -17.41210938 84.32495117 C-17.7508387 80.86643666 -18.09756704 77.40879027 -18.4453125 73.95117188 C-18.66453433 71.74223428 -18.88330036 69.53325138 -19.1015625 67.32421875 C-19.20465729 66.2960051 -19.30775208 65.26779144 -19.41397095 64.2084198 C-19.86935238 59.5155523 -20.25609971 54.90959129 -20.125 50.1875 C-25.57 50.6825 -25.57 50.6825 -31.125 51.1875 C-31.125 47.8875 -31.125 44.5875 -31.125 41.1875 C-28.485 40.8575 -25.845 40.5275 -23.125 40.1875 C-23.1156543 39.43654053 -23.10630859 38.68558105 -23.09667969 37.91186523 C-23.04272436 34.48226356 -22.95912453 31.05398892 -22.875 27.625 C-22.85373047 25.85286133 -22.85373047 25.85286133 -22.83203125 24.04492188 C-22.61361201 16.24735502 -21.9421647 11.35775243 -16.5625 5.48046875 C-10.80253427 1.05092988 -7.28301045 -0.12377209 0 0 Z " fill="#F4F4F2" transform="translate(392.125,871.8125)"/>
<path d="M0 0 C0.79921875 0.00902344 1.5984375 0.01804687 2.421875 0.02734375 C3.02515625 0.03894531 3.6284375 0.05054688 4.25 0.0625 C4.37528076 1.21621094 4.50056152 2.36992188 4.62963867 3.55859375 C5.22831167 9.06033055 5.83210197 14.56149949 6.4375 20.0625 C6.54782562 21.06614594 6.65815125 22.06979187 6.77182007 23.10385132 C8.00647164 34.30392877 9.27767093 45.49723649 10.6953125 56.67578125 C10.81084976 57.58713837 10.92638702 58.49849548 11.04542542 59.43746948 C11.59647288 63.76485803 12.15615994 68.09097653 12.7253418 72.41601562 C12.92760394 73.98176666 13.12983545 75.54752165 13.33203125 77.11328125 C13.42553864 77.80416336 13.51904602 78.49504547 13.61538696 79.2068634 C14.213201 83.87185213 14.32683142 88.37120628 14.25 93.0625 C14.79712646 92.98209473 15.34425293 92.90168945 15.90795898 92.81884766 C25.44833298 91.42220943 34.9906515 90.04004128 44.5625 88.875 C45.85800781 88.71644531 47.15351563 88.55789063 48.48828125 88.39453125 C52.44758138 88.04506031 56.27832943 88.0051951 60.25 88.0625 C60.745 93.0125 60.745 93.0125 61.25 98.0625 C52.81135013 99.95567799 44.360333 100.9458907 35.77392578 101.86743164 C33.38651143 102.12376404 30.99987037 102.38649602 28.61328125 102.65039062 C20.16761701 103.57692058 11.72297358 104.42041885 3.25 105.0625 C0.6258724 86.46658301 -1.60004019 67.84527039 -3.63372803 49.17614746 C-4.93233145 37.25683206 -6.25418868 25.3512761 -7.93774414 13.47875977 C-8.52034101 9.29769479 -8.8792026 5.29898522 -8.75 1.0625 C-5.75519083 0.1901588 -3.11424089 -0.04579766 0 0 Z " fill="#F4F5F3" transform="translate(259.75,896.9375)"/>
<path d="M0 0 C6.6825 -0.061875 6.6825 -0.061875 13.5 -0.125 C15.58344727 -0.15231201 15.58344727 -0.15231201 17.70898438 -0.18017578 C27.35558258 -0.2233155 34.87727924 0.5327841 43 6 C47.85444688 11.36544129 48.36320821 14.77578556 48.26953125 21.88671875 C47.80851376 27.21180478 46.32022308 31.03208845 42.19921875 34.52734375 C35.91529927 38.73695971 29.52116606 40.26241037 21.97265625 40.1953125 C20.81258057 40.19031738 19.65250488 40.18532227 18.45727539 40.18017578 C17.00699951 40.16196777 15.55672363 40.14375977 14.0625 40.125 C9.421875 40.08375 4.78125 40.0425 0 40 C0 26.8 0 13.6 0 0 Z " fill="#030737" transform="translate(994,908)"/>
<path d="M0 0 C33.74293059 0 33.74293059 0 44 10 C47.62374838 13.96347479 47.44431039 18.13295946 47.28515625 23.28125 C46.61947259 29.62804213 43.97514838 33.92942405 39 38 C33.88985275 40.59040082 30.2075795 41.37025515 24.38671875 41.328125 C23.69109329 41.32625183 22.99546783 41.32437866 22.27876282 41.32244873 C20.82242978 41.31577605 19.36611319 41.30195811 17.90991211 41.28125 C15.676101 41.24983972 13.44299542 41.24024689 11.20898438 41.234375 C0.32834576 41.16417288 0.32834576 41.16417288 -2 40 C-1.34 26.8 -0.68 13.6 0 0 Z " fill="#030737" transform="translate(1439,924)"/>
<path d="M0 0 C3.96 0 7.92 0 12 0 C12.33 34.32 12.66 68.64 13 104 C14.65 104.33 16.3 104.66 18 105 C19.1577506 108.47325181 19.06866652 111.36067448 19 115 C13.949647 116.61611296 9.5652327 116.75251572 4.75 114.4375 C0.85226494 110.98268938 -0.75223473 107.57460967 -1.24487305 102.45544434 C-1.31704675 99.32447375 -1.28362317 96.20929558 -1.21875 93.078125 C-1.20614136 91.87166321 -1.19353271 90.66520142 -1.18054199 89.42218018 C-1.15045163 86.74116243 -1.11462888 84.06087744 -1.06982422 81.38012695 C-0.99325733 76.75293437 -0.9431012 72.12560549 -0.89453125 67.49804688 C-0.79296004 58.12614273 -0.6670036 48.75465649 -0.53643799 39.38311768 C-0.47472287 34.92339927 -0.41520407 30.46365153 -0.35546875 26.00390625 C-0.23905884 17.33590834 -0.12032632 8.66794443 0 0 Z " fill="#F3F3F2" transform="translate(1075,845)"/>
<path d="M0 0 C30.3060585 -0.70891365 30.3060585 -0.70891365 37.8515625 5.53125 C42.02471886 10.28724943 42.34906516 14.1419616 42.27734375 20.23828125 C41.8860997 24.13419036 40.64496521 26.14622175 38 29 C29.90598814 35.47520949 21.98768442 35.27057023 12.0625 35.125 C8.081875 35.08375 4.10125 35.0425 0 35 C0 23.45 0 11.9 0 0 Z " fill="#050939" transform="translate(994,863)"/>
<path d="M0 0 C28.1208904 -0.91920586 28.1208904 -0.91920586 37 7 C40.17351944 10.37998938 40.40674752 12.86056641 40.375 17.4375 C40.38660156 19.10619141 40.38660156 19.10619141 40.3984375 20.80859375 C39.81851018 25.45369784 38.04305179 28.01332939 34.6875 31.1875 C29.9209398 34.40215688 25.48401384 35.25282799 19.796875 35.23046875 C18.6521875 35.22853516 17.5075 35.22660156 16.328125 35.22460938 C14.55695313 35.20624023 14.55695313 35.20624023 12.75 35.1875 C10.955625 35.1865332 10.955625 35.1865332 9.125 35.18554688 C0.28105357 35.14052679 0.28105357 35.14052679 -2 34 C-1.88127168 29.96132839 -1.75699341 25.92286858 -1.62768555 21.88452148 C-1.5845116 20.51217224 -1.54282499 19.13977533 -1.50268555 17.76733398 C-1.44455608 15.78877932 -1.3805429 13.8104003 -1.31640625 11.83203125 C-1.27974854 10.64327393 -1.24309082 9.4545166 -1.20532227 8.22973633 C-1.02453589 5.38595153 -0.64190592 2.77093195 0 0 Z " fill="#030738" transform="translate(1443,880)"/>
<path d="M0 0 C0.89203125 0.00902344 1.7840625 0.01804687 2.703125 0.02734375 C3.37859375 0.03894531 4.0540625 0.05054688 4.75 0.0625 C5.80404945 4.04446457 5.59098656 7.04445309 4.75 11.0625 C3.698125 11.08376953 3.698125 11.08376953 2.625 11.10546875 C-4.11700441 11.44440104 -9.20253332 12.3698439 -14.25 17.0625 C-17.89295689 21.80470323 -20.37533589 25.98436718 -20.3828125 31.99609375 C-20.38474609 33.02557129 -20.38667969 34.05504883 -20.38867188 35.11572266 C-20.38416016 36.23253418 -20.37964844 37.3493457 -20.375 38.5 C-20.37209961 40.21388916 -20.37209961 40.21388916 -20.36914062 41.96240234 C-20.30687693 54.67284353 -19.8141648 67.36579117 -19.25 80.0625 C-22.09894355 80.81647865 -24.54765254 81.17420579 -27.5 81.125 C-29.35625 81.0940625 -29.35625 81.0940625 -31.25 81.0625 C-31.96034564 77.12238875 -32.42949036 73.27645068 -32.63891602 69.27929688 C-32.69890274 68.16373413 -32.75888947 67.04817139 -32.82069397 65.89880371 C-32.91138405 64.10811462 -32.91138405 64.10811462 -33.00390625 62.28125 C-33.06907944 61.03557251 -33.13425262 59.78989502 -33.20140076 58.50646973 C-33.33835887 55.87059514 -33.47392042 53.23469267 -33.60717773 50.59863281 C-33.80933673 46.60448317 -34.02099519 42.61085745 -34.23242188 38.6171875 C-34.36503573 36.0468983 -34.4972109 33.47658642 -34.62890625 30.90625 C-34.69139053 29.72865112 -34.75387482 28.55105225 -34.81825256 27.33776855 C-35.2216853 19.2400904 -35.31872454 11.16959423 -35.25 3.0625 C-31.95 3.0625 -28.65 3.0625 -25.25 3.0625 C-24.03306124 5.49637753 -23.93040104 7.48088846 -23.6875 10.1875 C-23.60371094 11.09757813 -23.51992188 12.00765625 -23.43359375 12.9453125 C-23.37300781 13.64398437 -23.31242188 14.34265625 -23.25 15.0625 C-22.82589844 14.47082031 -22.40179687 13.87914062 -21.96484375 13.26953125 C-15.91043745 5.11271573 -10.5587559 -0.138931 0 0 Z " fill="#F4F4F2" transform="translate(703.25,885.9375)"/>
<path d="M0 0 C2.27217729 0.0677026 4.53989303 0.08199372 6.81298828 0.08740234 C19.25990025 0.24975486 19.25990025 0.24975486 24.77783203 3.69287109 C27.25440049 7.40772378 27.43155624 10.38646284 26.77783203 14.69287109 C23.97913509 20.29026497 20.15092194 22.90333103 14.73095703 25.77880859 C10.32304935 27.14316097 6.05376459 27.06146714 1.46533203 27.06787109 C0.55332031 27.09236328 -0.35869141 27.11685547 -1.29833984 27.14208984 C-7.44583121 27.16853067 -12.1117724 26.22959661 -17.22216797 22.69287109 C-19.75612643 20.0353049 -21.0610345 18.24201391 -21.44482422 14.55224609 C-21.23262555 9.56133333 -19.92754053 5.88182258 -16.54980469 2.13500977 C-11.69406218 -0.87347261 -5.54127248 -0.16900701 0 0 Z " fill="#060A3A" transform="translate(877.22216796875,959.30712890625)"/>
<path d="M0 0 C4.65168778 2.6025242 8.23649736 5.86566054 9.7265625 11.11328125 C10.68729342 18.277589 10.70075939 24.61506067 6.19140625 30.5234375 C2.03858143 35.03063671 -1.14559473 36.38083316 -7.2109375 36.67578125 C-11.98536173 36.4923771 -15.24204934 35.89136673 -18.87109375 32.71484375 C-23.63188282 27.27773089 -24.96688855 21.97802048 -24.6484375 14.79296875 C-23.93653243 9.7058138 -22.33212431 6.05812363 -18.578125 2.51171875 C-12.87084624 -1.62432537 -6.62307398 -2.58322645 0 0 Z " fill="#050839" transform="translate(883.2734375,889.88671875)"/>
<path d="M0 0 C3.96 0 7.92 0 12 0 C12.73110671 2.92442683 13.15485742 5.10606663 13.29711914 8.03295898 C13.33707504 8.82091354 13.37703094 9.6088681 13.41819763 10.42070007 C13.45679398 11.27057999 13.49539032 12.1204599 13.53515625 12.99609375 C13.57822403 13.88976151 13.62129181 14.78342926 13.66566467 15.70417786 C13.80332635 18.61506456 13.93359287 21.52621325 14.0625 24.4375 C14.10735535 25.42254517 14.15221069 26.40759033 14.19842529 27.42248535 C14.94394433 43.96135178 15.26755163 60.44472829 15 77 C10.94150823 77.98387679 7.16468745 78.03924323 3 78 C2.60651385 69.15905586 2.21518314 60.31801962 1.82654572 51.476861 C1.64598762 47.37083875 1.4647086 43.26485107 1.28173828 39.15893555 C1.10493733 35.19085012 0.93008725 31.22268294 0.75654602 27.25445366 C0.69025544 25.74630144 0.62328148 24.23817908 0.55558777 22.73008919 C0.21577848 15.15014404 -0.08889271 7.58921478 0 0 Z " fill="#F3F3F2" transform="translate(723,886)"/>
<path d="M0 0 C1.82880024 9.93315766 2.94751753 19.90036781 4 29.9375 C4.17532532 31.58871828 4.35078194 33.23992262 4.52636719 34.89111328 C5.02451055 39.59336384 5.51426732 44.29645262 6 49 C6.12439453 50.20382324 6.24878906 51.40764648 6.37695312 52.64794922 C6.67416043 55.5563986 6.96484056 58.46534756 7.25 61.375 C7.32992188 62.17413818 7.40984375 62.97327637 7.4921875 63.79663086 C7.91172514 68.22556934 8.07031621 72.55835928 8 77 C3.9472484 77.98248524 0.16138263 78.08159574 -4 78 C-5.4347744 69.20759386 -6.55983241 60.42688094 -7.4375 51.5625 C-7.62372925 49.71785156 -7.62372925 49.71785156 -7.8137207 47.8359375 C-8.07578658 45.23598109 -8.3364213 42.63588006 -8.59570312 40.03564453 C-8.93920062 36.59532212 -9.29034543 33.15582635 -9.64402771 29.71653748 C-9.92595762 26.97320945 -10.20564915 24.22965599 -10.4848938 21.48605347 C-10.68387098 19.5355736 -10.8847644 17.58528953 -11.08569336 15.63500977 C-11.20565674 14.44576904 -11.32562012 13.25652832 -11.44921875 12.03125 C-11.55580811 10.98517578 -11.66239746 9.93910156 -11.7722168 8.86132812 C-11.98209112 6.22496473 -12.04285586 3.64308214 -12 1 C-7.94863773 0.36449219 -4.09744212 -0.05661405 0 0 Z " fill="#F4F4F3" transform="translate(342,915)"/>
<path d="M0 0 C0.1099544 2.69388291 0.09167763 5.30696975 0 8 C-0.04640625 9.81177734 -0.04640625 9.81177734 -0.09375 11.66015625 C-0.81055685 21.76514175 -0.81055685 21.76514175 -4.1484375 25.23046875 C-6.71455312 26.79094447 -9.19037677 27.94857267 -12 29 C-12.99 29.45375 -13.98 29.9075 -15 30.375 C-20.7974493 31.58280194 -26.54703848 32.13335592 -31.9375 29.3125 C-35.05596646 26.95773962 -36.57219276 25.61151243 -38 22 C-38.64555507 17.02000378 -37.9167835 13.70547647 -35.25 9.56640625 C-30.25214484 3.30346901 -21.6016677 1.42043537 -14 0.3125 C-9.34484843 -0.16446225 -4.67341764 -0.08619008 0 0 Z " fill="#070A3A" transform="translate(1562,943)"/>
<path d="M0 0 C4.7002888 2.71720549 7.56890979 6.6455475 9.75 11.5625 C10.45366379 14.91305806 10.73571962 18.14235014 10.75 21.5625 C6.5582985 22.69956706 2.36362836 22.99441697 -1.953125 23.31640625 C-3.20980988 23.41416603 -3.20980988 23.41416603 -4.49188232 23.51390076 C-7.16101936 23.72080011 -9.83049109 23.92296103 -12.5 24.125 C-14.31252411 24.26466146 -16.12502444 24.40463181 -17.9375 24.54492188 C-22.37473236 24.88769624 -26.81227077 25.22622211 -31.25 25.5625 C-31.38647084 17.51588994 -29.79773919 12.38889588 -25.25 5.5625 C-18.31224914 -1.34911997 -9.31223131 -3.94738129 0 0 Z " fill="#050939" transform="translate(455.25,914.4375)"/>
<path d="M0 0 C2.97 0 5.94 0 9 0 C9 10.56 9 21.12 9 32 C10.32 32 11.64 32 13 32 C13 32.66 13 33.32 13 34 C10.36 34 7.72 34 5 34 C4.67 33.01 4.34 32.02 4 31 C3.46375 31.495 2.9275 31.99 2.375 32.5 C-0.71852796 34.45380713 -2.39369166 34.51518691 -6 34 C-9.33761045 31.84909549 -10.73470933 30.79587201 -12 27 C-12.50149463 20.88176547 -12.06790897 17.90541964 -8 13 C-5.6203388 11.8101694 -4.08514265 11.86650034 -1.4375 11.875 C-0.22900391 11.87113281 -0.22900391 11.87113281 1.00390625 11.8671875 C3 12 3 12 4 13 C4.33 9.37 4.66 5.74 5 2 C3.35 2 1.7 2 0 2 C0 1.34 0 0.68 0 0 Z " fill="#DFDFE2" transform="translate(914,1020)"/>
<path d="M0 0 C2.64 0 5.28 0 8 0 C8.33 0.99 8.66 1.98 9 3 C9.33 2.505 9.66 2.01 10 1.5 C12.58926296 -0.44194722 14.80418025 -0.55136774 17.9921875 -0.3984375 C20 0 20 0 23 1.875 C25.80633315 6.25989555 26.03711759 9.92784677 25 15 C23.29846685 18.11530701 21.2232112 20.3883944 18 22 C11.46666667 22.23333333 11.46666667 22.23333333 9 21 C8.67 23.97 8.34 26.94 8 30 C9.65 30 11.3 30 13 30 C13 30.33 13 30.66 13 31 C8.71 31 4.42 31 0 31 C0.99 30.34 1.98 29.68 3 29 C3.51146198 26.09386566 3.51146198 26.09386566 3.51171875 22.6796875 C3.54716797 21.42285156 3.58261719 20.16601562 3.61914062 18.87109375 C3.64169922 17.55238281 3.66425781 16.23367188 3.6875 14.875 C3.72066529 13.53512241 3.75515422 12.19527689 3.79101562 10.85546875 C3.87373327 7.5703967 3.94280693 4.28559968 4 1 C2.68 0.67 1.36 0.34 0 0 Z " fill="#E9E9EA" transform="translate(975,1032)"/>
<path d="M0 0 C2.93423195 1.79646854 4.47205355 2.9441071 6 6 C6.35017306 11.3401391 6.46830225 14.66462219 3 19 C0.40063719 21.79190821 -1.00859908 22.00110956 -4.875 22.5 C-9.65776952 22.33014463 -11.75730635 20.40087383 -15 17 C-16.52199443 12.43401671 -16.74716734 8.60107286 -14.6875 4.1875 C-10.71316351 -0.96441768 -6.02239372 -0.80682787 0 0 Z " fill="#090D3C" transform="translate(966,1032)"/>
<path d="M0 0 C3 1.875 3 1.875 5 5 C5.69530818 8.79569877 5.72883013 12.20780575 5 16 C2.7984026 18.89683868 1.21405538 20.39297231 -2 22 C-9.08958838 22.5811138 -9.08958838 22.5811138 -12.9375 20.125 C-16.51729199 16.43672946 -16.33529422 13.44412771 -16.28515625 8.48046875 C-15.88136394 4.96802881 -14.61222617 3.32197882 -12 1 C-8.36115419 -1.85909313 -4.23318002 -1.24899767 0 0 Z " fill="#070B3A" transform="translate(830,1032)"/>
<path d="M0 0 C2.25462299 1.61044499 2.77453554 2.6374517 3.75 5.25 C3.88958857 7.87426505 3.93931369 10.38292747 3.875 13 C3.86597656 13.69738281 3.85695313 14.39476562 3.84765625 15.11328125 C3.82419888 16.82566958 3.78833104 18.53788004 3.75 20.25 C5.07 19.26 6.39 18.27 7.75 17.25 C7.42 18.57 7.09 19.89 6.75 21.25 C4.4375 21.9375 4.4375 21.9375 1.75 22.25 C-0.0625 20.8125 -0.0625 20.8125 -1.25 19.25 C-1.78625 19.745 -2.3225 20.24 -2.875 20.75 C-5.91673285 22.67109443 -7.71049143 22.70185216 -11.25 22.25 C-13.125 21.125 -13.125 21.125 -14.25 19.25 C-14.6875 16.25 -14.6875 16.25 -14.25 13.25 C-11.84035866 10.21175657 -9.17069764 9.99026634 -5.5 9.5625 C-4.08429039 9.44604647 -2.66777182 9.33785338 -1.25 9.25 C-1.25 6.94 -1.25 4.63 -1.25 2.25 C-3.56 1.92 -5.87 1.59 -8.25 1.25 C-8.91 2.9 -9.57 4.55 -10.25 6.25 C-11.24 5.92 -12.23 5.59 -13.25 5.25 C-13 3.375 -13 3.375 -12.25 1.25 C-8.53091969 -1.50487431 -4.28458375 -1.42819458 0 0 Z " fill="#CDCED4" transform="translate(1134.25,1031.75)"/>
<path d="M0 0 C7.92 0 15.84 0 24 0 C24 2.97 24 5.94 24 9 C21.22017379 7.6100869 21.12536659 5.81341647 20 3 C17.70370006 1.85185003 15.92301914 1.69230191 13.375 1.4375 C11.93125 1.293125 10.4875 1.14875 9 1 C9 5.29 9 9.58 9 14 C12.3 14 15.6 14 19 14 C19 14.66 19 15.32 19 16 C15.7 16 12.4 16 9 16 C9 20.29 9 24.58 9 29 C14.08731959 28.95222037 14.08731959 28.95222037 19 28 C21.13277343 25.77076948 21.83081377 23.92296558 23 21 C23.33 21 23.66 21 24 21 C24 24.3 24 27.6 24 31 C16.08 31 8.16 31 0 31 C0 30.34 0 29.68 0 29 C1.32 29 2.64 29 4 29 C4 19.76 4 10.52 4 1 C2.68 0.67 1.36 0.34 0 0 Z " fill="#E4E4E6" transform="translate(699,1023)"/>
<path d="M0 0 C0.7734375 0.06445312 1.546875 0.12890625 2.34375 0.1953125 C4.5 0.875 4.5 0.875 6.26953125 2.4140625 C8.03038854 5.93577708 7.81976384 9.28595722 7.6875 13.125 C7.66719727 14.24261719 7.66719727 14.24261719 7.64648438 15.3828125 C7.61127204 17.21385416 7.55746851 19.04452169 7.5 20.875 C8.82 19.885 10.14 18.895 11.5 17.875 C11.17 19.195 10.84 20.515 10.5 21.875 C8.1875 22.5 8.1875 22.5 5.5 22.875 C4.51 22.215 3.52 21.555 2.5 20.875 C1.96375 21.205 1.4275 21.535 0.875 21.875 C-2.12934544 23.13998755 -4.26767442 23.21886442 -7.5 22.875 C-9.4375 21.8125 -9.4375 21.8125 -10.5 19.875 C-10.5625 16.375 -10.5625 16.375 -9.5 12.875 C-5.26175856 9.74677418 -1.66086504 9.5653481 3.5 9.875 C2.84 7.565 2.18 5.255 1.5 2.875 C-0.87374861 2.54074265 -0.87374861 2.54074265 -3.5 2.875 C-5.34315671 4.7754467 -5.34315671 4.7754467 -6.5 6.875 C-7.49 6.545 -8.48 6.215 -9.5 5.875 C-7.44508893 1.13289752 -5.19054016 -0.53635582 0 0 Z " fill="#E6E7E8" transform="translate(1046.5,1031.125)"/>
<path d="M0 0 C2.671875 1.4765625 2.671875 1.4765625 5 4 C5.61268646 6.93984957 5.4734715 9.76335952 5.3125 12.75 C5.28994141 13.54277344 5.26738281 14.33554688 5.24414062 15.15234375 C5.18540471 17.1023762 5.09572654 19.05143312 5 21 C5.99 21 6.98 21 8 21 C8 20.01 8 19.02 8 18 C8.66 18 9.32 18 10 18 C9.125 21.875 9.125 21.875 8 23 C5.5625 23.25 5.5625 23.25 3 23 C2.34 22.01 1.68 21.02 1 20 C0.46375 20.495 -0.0725 20.99 -0.625 21.5 C-3.70110743 23.44280469 -5.41889189 23.52224493 -9 23 C-11.4375 21.3125 -11.4375 21.3125 -13 19 C-13.125 16.5 -13.125 16.5 -12 14 C-8.59822636 11.00319941 -6.67855028 10.04377744 -2.125 9.75 C-1.09375 9.8325 -0.0625 9.915 1 10 C0.34 7.69 -0.32 5.38 -1 3 C-2.65 3 -4.3 3 -6 3 C-6.66 4.32 -7.32 5.64 -8 7 C-8.99 6.67 -9.98 6.34 -11 6 C-10.75 4.125 -10.75 4.125 -10 2 C-6.83142999 -0.3470889 -3.84275221 -0.47054109 0 0 Z " fill="#E1E1E3" transform="translate(1214,1031)"/>
<path d="M0 0 C2.5625 1.75 2.5625 1.75 4 4 C3.9375 6.625 3.9375 6.625 3 9 C-0.42094242 11.28062828 -1.68187222 11.21925007 -5.6875 11.125 C-7.17830078 11.09792969 -7.17830078 11.09792969 -8.69921875 11.0703125 C-9.45847656 11.04710937 -10.21773437 11.02390625 -11 11 C-10.1395861 15.33229715 -10.1395861 15.33229715 -8 19 C-2.12353969 19.46331437 -2.12353969 19.46331437 3 17 C1.25 20.875 1.25 20.875 -1 22 C-7.81283762 22.68128376 -7.81283762 22.68128376 -10.82421875 20.953125 C-12.98828747 19.17156722 -14.73804816 17.52390368 -16 15 C-16.39771327 10.22744077 -16.47453429 7.91517328 -14.25 3.625 C-9.95287235 -1.38831559 -6.23420712 -1.75934679 0 0 Z " fill="#CECFD5" transform="translate(1184,1032)"/>
<path d="M0 0 C2.5625 1.75 2.5625 1.75 4 4 C4 6.625 4 6.625 3 9 C-0.1073317 11.04356048 -2.58367578 11.22148222 -6.25 11.125 C-7.14203125 11.10695313 -8.0340625 11.08890625 -8.953125 11.0703125 C-9.96632813 11.03550781 -9.96632813 11.03550781 -11 11 C-10.1395861 15.33229715 -10.1395861 15.33229715 -8 19 C-2.12353969 19.46331437 -2.12353969 19.46331437 3 17 C1.25 20.875 1.25 20.875 -1 22 C-5.72102578 22.47210258 -8.65955345 22.73364092 -12.4375 19.6875 C-15.44050329 16.53800875 -15.90840139 14.97094525 -16.3125 10.6875 C-15.94050629 6.2979742 -14.80652364 4.35223657 -12 1 C-8.44706373 -1.91848336 -4.1967546 -1.18436019 0 0 Z " fill="#D0D0D6" transform="translate(1297,1032)"/>
<path d="M0 0 C2.5625 1.75 2.5625 1.75 4 4 C4 6.625 4 6.625 3 9 C-0.1073317 11.04356048 -2.58367578 11.22148222 -6.25 11.125 C-7.14203125 11.10695313 -8.0340625 11.08890625 -8.953125 11.0703125 C-9.96632813 11.03550781 -9.96632813 11.03550781 -11 11 C-10.1395861 15.33229715 -10.1395861 15.33229715 -8 19 C-2.12353969 19.46331437 -2.12353969 19.46331437 3 17 C1.25 20.875 1.25 20.875 -1 22 C-5.72102578 22.47210258 -8.65955345 22.73364092 -12.4375 19.6875 C-15.44050329 16.53800875 -15.90840139 14.97094525 -16.3125 10.6875 C-15.94050629 6.2979742 -14.80652364 4.35223657 -12 1 C-8.44706373 -1.91848336 -4.1967546 -1.18436019 0 0 Z " fill="#D0D0D6" transform="translate(767,1032)"/>
<path d="M0 0 C3.375 1.625 3.375 1.625 6 4 C6.4375 7.1875 6.4375 7.1875 6 10 C5 11 5 11 1.83984375 11.09765625 C-0.09181641 11.08025391 -0.09181641 11.08025391 -2.0625 11.0625 C-3.35285156 11.05347656 -4.64320313 11.04445313 -5.97265625 11.03515625 C-6.97167969 11.02355469 -7.97070312 11.01195312 -9 11 C-8.01 13.97 -7.02 16.94 -6 20 C-4.72125 20.061875 -3.4425 20.12375 -2.125 20.1875 C-1.40570312 20.22230469 -0.68640625 20.25710938 0.0546875 20.29296875 C1.01761719 20.14794922 1.01761719 20.14794922 2 20 C2.66 19.01 3.32 18.02 4 17 C4.66 17 5.32 17 6 17 C4.63016497 20.16115776 4.0109362 20.9927092 1 23 C-5.94677871 23.67226891 -5.94677871 23.67226891 -9.9375 21.125 C-13.48617625 17.4687881 -13.3879121 14.48056612 -13.359375 9.55078125 C-12.78039966 5.44131496 -11.00085071 3.78650423 -8 1 C-5.13391871 -0.43304064 -3.18699217 -0.30644155 0 0 Z " fill="#E2E2E4" transform="translate(882,1031)"/>
<path d="M0 0 C2.64 0 5.28 0 8 0 C8.33 0.66 8.66 1.32 9 2 C9.66 1.34 10.32 0.68 11 0 C16.63994911 -0.63676845 16.63994911 -0.63676845 19 0 C22.16386183 2.8772402 22.94651088 4.48382999 23.390625 8.76953125 C23.36431837 10.11774585 23.31701804 11.46569518 23.25 12.8125 C23.23195313 13.50537109 23.21390625 14.19824219 23.1953125 14.91210938 C23.14851064 16.60867664 23.07677624 18.30452476 23 20 C23.99 20 24.98 20 26 20 C26 20.66 26 21.32 26 22 C22.37 22 18.74 22 15 22 C15 21.34 15 20.68 15 20 C15.99 19.67 16.98 19.34 18 19 C18.02692484 16.70839681 18.04636124 14.41670454 18.0625 12.125 C18.07410156 10.84882812 18.08570313 9.57265625 18.09765625 8.2578125 C18.23176569 5.11335348 18.23176569 5.11335348 17 3 C14.08365871 2.7497843 14.08365871 2.7497843 11 3 C8.57520264 6.63719605 8.61337423 8.85703482 8.375 13.1875 C8.30023437 14.45980469 8.22546875 15.73210937 8.1484375 17.04296875 C8.09945312 18.01878906 8.05046875 18.99460937 8 20 C8.99 20 9.98 20 11 20 C11 20.66 11 21.32 11 22 C7.37 22 3.74 22 0 22 C0 21.34 0 20.68 0 20 C0.99 19.67 1.98 19.34 3 19 C3.495 10.09 3.495 10.09 4 1 C2.68 0.67 1.36 0.34 0 0 Z " fill="#DDDDE0" transform="translate(839,1032)"/>
<path d="M0 0 C2.64 0 5.28 0 8 0 C8.33 0.66 8.66 1.32 9 2 C9.66 1.34 10.32 0.68 11 0 C16.63994911 -0.63676845 16.63994911 -0.63676845 19 0 C22.16386183 2.8772402 22.94651088 4.48382999 23.390625 8.76953125 C23.36431837 10.11774585 23.31701804 11.46569518 23.25 12.8125 C23.23195313 13.50537109 23.21390625 14.19824219 23.1953125 14.91210938 C23.14851064 16.60867664 23.07677624 18.30452476 23 20 C23.99 20 24.98 20 26 20 C26 20.66 26 21.32 26 22 C22.37 22 18.74 22 15 22 C15 21.34 15 20.68 15 20 C15.99 19.67 16.98 19.34 18 19 C18.02692484 16.70839681 18.04636124 14.41670454 18.0625 12.125 C18.07410156 10.84882812 18.08570313 9.57265625 18.09765625 8.2578125 C18.23176569 5.11335348 18.23176569 5.11335348 17 3 C14.08365871 2.7497843 14.08365871 2.7497843 11 3 C8.57520264 6.63719605 8.61337423 8.85703482 8.375 13.1875 C8.30023437 14.45980469 8.22546875 15.73210937 8.1484375 17.04296875 C8.09945312 18.01878906 8.05046875 18.99460937 8 20 C8.99 20 9.98 20 11 20 C11 20.66 11 21.32 11 22 C7.37 22 3.74 22 0 22 C0 21.34 0 20.68 0 20 C0.99 19.67 1.98 19.34 3 19 C3.495 10.09 3.495 10.09 4 1 C2.68 0.67 1.36 0.34 0 0 Z " fill="#DEDEE1" transform="translate(774,1032)"/>
<path d="M0 0 C2.64 0 5.28 0 8 0 C8.33 0.66 8.66 1.32 9 2 C9.99 1.34 10.98 0.68 12 0 C15.4375 -0.4375 15.4375 -0.4375 19 0 C22.13084735 2.89257047 22.94746304 4.49301833 23.390625 8.76953125 C23.36431837 10.11774585 23.31701804 11.46569518 23.25 12.8125 C23.23195313 13.50537109 23.21390625 14.19824219 23.1953125 14.91210938 C23.14851064 16.60867664 23.07677624 18.30452476 23 20 C23.99 20 24.98 20 26 20 C26 20.66 26 21.32 26 22 C22.37 22 18.74 22 15 22 C15 21.34 15 20.68 15 20 C15.99 19.67 16.98 19.34 18 19 C18.02692484 16.70839681 18.04636124 14.41670454 18.0625 12.125 C18.07410156 10.84882812 18.08570313 9.57265625 18.09765625 8.2578125 C18.23176569 5.11335348 18.23176569 5.11335348 17 3 C14.08365871 2.7497843 14.08365871 2.7497843 11 3 C8.57520264 6.63719605 8.61337423 8.85703482 8.375 13.1875 C8.30023437 14.45980469 8.22546875 15.73210937 8.1484375 17.04296875 C8.09945313 18.01878906 8.05046875 18.99460937 8 20 C8.99 20 9.98 20 11 20 C11 20.66 11 21.32 11 22 C7.37 22 3.74 22 0 22 C0 21.34 0 20.68 0 20 C0.99 19.67 1.98 19.34 3 19 C3.495 10.09 3.495 10.09 4 1 C2.68 0.67 1.36 0.34 0 0 Z " fill="#D4D5DA" transform="translate(1060,1032)"/>
<path d="M0 0 C2.02734375 0.640625 2.02734375 0.640625 4.08984375 2.328125 C5.33139193 5.39061051 5.49617845 7.3587821 5.02734375 10.640625 C3.58984375 13.515625 3.58984375 13.515625 1.02734375 15.640625 C-2.11669766 16.35596653 -4.82861484 16.35596653 -7.97265625 15.640625 C-11.03284496 13.10290753 -11.8071581 11.52328181 -12.53515625 7.640625 C-11.97265625 4.640625 -11.97265625 4.640625 -10.03515625 1.703125 C-6.27195737 -0.83127425 -4.35624944 -0.7828202 0 0 Z " fill="#EFF0EF" transform="translate(336.97265625,883.359375)"/>
<path d="M0 0 C2.5 1.5 2.5 1.5 4 4 C4.60460397 6.80996894 4.65502602 9.19602896 4 12 C1.29649843 15.2769716 -0.37521292 15.90134941 -4.5625 16.5625 C-8 16 -8 16 -10.4375 13.9375 C-12.38925759 10.26819573 -12.59677999 8.10286241 -12 4 C-9.10088554 -0.711061 -5.09331372 -1.00196335 0 0 Z " fill="#F4F4F3" transform="translate(732,854)"/>
<path d="M0 0 C2.875 0.4375 2.875 0.4375 4.875 2.4375 C6.56996432 7.01390367 6.51614128 11.79902783 4.75 16.3125 C2.875 18.4375 2.875 18.4375 -0.125 19.4375 C-3.125 19.4375 -3.125 19.4375 -4.9375 18.1875 C-7.57062805 14.30710077 -7.75102024 9.96953387 -7.125 5.4375 C-5.1064923 1.71102424 -4.23716069 0.5932025 0 0 Z " fill="#0A0E3D" transform="translate(990.125,1033.5625)"/>
<path d="M0 0 C2.33649018 1.79130914 2.89277444 3.20176525 3.28125 6.09375 C3.47361523 10.9028808 3.05605615 14.08824813 0 18 C-1 19 -1 19 -3.375 19.3125 C-6 19 -6 19 -7.640625 17.359375 C-9.35515933 14.38357404 -9.40041484 12.35579585 -9.375 8.9375 C-9.38273438 7.89464844 -9.39046875 6.85179687 -9.3984375 5.77734375 C-9 3 -9 3 -7.6640625 1.15625 C-5.03855537 -0.66804604 -3.09676281 -0.45161124 0 0 Z " fill="#060A3A" transform="translate(916,1033)"/>
<path d="M0 0 C2.93423195 1.79646854 4.47205355 2.9441071 6 6 C6.35017306 11.3401391 6.46830225 14.66462219 3 19 C0.40063719 21.79190821 -1.00859908 22.00110956 -4.875 22.5 C-9.65776952 22.33014463 -11.75730635 20.40087383 -15 17 C-16.52199443 12.43401671 -16.74716734 8.60107286 -14.6875 4.1875 C-10.71316351 -0.96441768 -6.02239372 -0.80682787 0 0 Z M-11 4 C-11.51517182 7.05919755 -11.51517182 7.05919755 -11.4375 10.4375 C-11.45683594 11.57058594 -11.47617187 12.70367188 -11.49609375 13.87109375 C-10.90585261 17.59379573 -10.00465408 18.78718616 -7 21 C-3.89706707 21.24677006 -3.89706707 21.24677006 -1 20 C1.74548641 17.07148116 2.23658761 14.38862697 2.4375 10.5 C2.31260376 7.24726761 1.95091725 5.9074979 0.375 2.9375 C-1.89657411 0.75539297 -1.89657411 0.75539297 -5.0625 0.5 C-8.35592396 1.0605828 -9.09042482 1.34102758 -11 4 Z " fill="#DDDDE0" transform="translate(966,1032)"/>
<path d="M0 0 C0.33 1.65 0.66 3.3 1 5 C-0.32 4.34 -1.64 3.68 -3 3 C-3 2.34 -3 1.68 -3 1 C-4.65 1.66 -6.3 2.32 -8 3 C-8.33 5.64 -8.66 8.28 -9 11 C-7.02 11 -5.04 11 -3 11 C-3 11.33 -3 11.66 -3 12 C-4.98 12 -6.96 12 -9 12 C-9 18.27 -9 24.54 -9 31 C-7.68 31 -6.36 31 -5 31 C-5 31.66 -5 32.32 -5 33 C-8.96 33 -12.92 33 -17 33 C-17 32.34 -17 31.68 -17 31 C-16.01 30.67 -15.02 30.34 -14 30 C-13.505 21.09 -13.505 21.09 -13 12 C-14.32 11.67 -15.64 11.34 -17 11 C-15.68 11 -14.36 11 -13 11 C-13.0825 10.113125 -13.165 9.22625 -13.25 8.3125 C-12.94530814 4.27533282 -11.77959995 2.86135289 -9 0 C-5.93109813 -1.53445094 -3.29905734 -0.54984289 0 0 Z " fill="#E1E2E4" transform="translate(1282,1021)"/>
<path d="M0 0 C3 1.875 3 1.875 5 5 C5.69530818 8.79569877 5.72883013 12.20780575 5 16 C2.7984026 18.89683868 1.21405538 20.39297231 -2 22 C-9.08958838 22.5811138 -9.08958838 22.5811138 -12.9375 20.125 C-16.51729199 16.43672946 -16.33529422 13.44412771 -16.28515625 8.48046875 C-15.88136394 4.96802881 -14.61222617 3.32197882 -12 1 C-8.36115419 -1.85909313 -4.23318002 -1.24899767 0 0 Z M-10.3125 2.375 C-12.91121024 6.41743816 -12.65046709 10.32571321 -12 15 C-10.83567931 17.48050929 -9.90574048 19.09425952 -8 21 C-5.62778044 21.50135199 -5.62778044 21.50135199 -3 21 C-0.1309665 18.75129807 0.85882245 16.96400022 1.38671875 13.359375 C1.55398235 9.04512759 1.64137614 6.02145088 -0.6875 2.3125 C-4.43518409 0.18543606 -6.60142311 0.16841374 -10.3125 2.375 Z " fill="#DDDDE1" transform="translate(830,1032)"/>
<path d="M0 0 C0 2.31 0 4.62 0 7 C-2 6 -2 6 -3 3 C-5.31 3 -7.62 3 -10 3 C-9.84952894 5.4295451 -9.84952894 5.4295451 -9 8 C-6.97221731 9.45988313 -6.97221731 9.45988313 -4.5 10.4375 C-0.15343886 12.64197598 -0.15343886 12.64197598 1.3125 16.0625 C1 19 1 19 -0.62890625 21.16796875 C-3.69324889 23.53564041 -5.42691122 23.41622125 -9.25 23.25 C-10.32765625 23.21390625 -11.4053125 23.1778125 -12.515625 23.140625 C-13.74539063 23.07101562 -13.74539063 23.07101562 -15 23 C-15 20.36 -15 17.72 -15 15 C-14.34 15 -13.68 15 -13 15 C-12.67 16.98 -12.34 18.96 -12 21 C-9.69 21 -7.38 21 -5 21 C-4.67 19.35 -4.34 17.7 -4 16 C-4.71027344 15.63648438 -5.42054687 15.27296875 -6.15234375 14.8984375 C-13.75300172 10.74099485 -13.75300172 10.74099485 -15.125 6.625 C-15 4 -15 4 -13.125 2 C-8.75759279 -0.79514062 -5.04817939 -0.35288244 0 0 Z " fill="#E3E4E5" transform="translate(1115,1031)"/>
<path d="M0 0 C2.875 1.75 2.875 1.75 5 4 C5 5.32 5 6.64 5 8 C3.125 7.75 3.125 7.75 1 7 C-0.25 4.9375 -0.25 4.9375 -1 3 C-3.41645782 2.83312552 -3.41645782 2.83312552 -6 3 C-8.27557135 4.85231097 -8.27557135 4.85231097 -8.265625 7.71484375 C-8.26046875 8.77832031 -8.2553125 9.84179688 -8.25 10.9375 C-8.25515625 11.99839844 -8.2603125 13.05929687 -8.265625 14.15234375 C-8.20859765 17.20171473 -8.20859765 17.20171473 -6 20 C-4.098006 20.47558206 -4.098006 20.47558206 -2 20.375 C-0.948125 20.38660156 -0.948125 20.38660156 0.125 20.3984375 C2.41058594 20.140914 2.41058594 20.140914 4 17 C4.66 17 5.32 17 6 17 C4.63016497 20.16115776 4.0109362 20.9927092 1 23 C-5.6352892 23.76142663 -5.6352892 23.76142663 -8.8203125 21.984375 C-11.50289576 19.83312465 -12.90511669 18.28464992 -14 15 C-14.40109454 10.74839783 -14.26378256 8.4993027 -12.25 4.6875 C-8.58164791 0.30585723 -5.72863268 -0.70146523 0 0 Z " fill="#D4D5DA" transform="translate(1028,1031)"/>
<path d="M0 0 C2.31 0 4.62 0 7 0 C7.33 0.99 7.66 1.98 8 3 C8.37125 2.505 8.7425 2.01 9.125 1.5 C11.74694393 -0.59755514 13.73842472 -0.21743835 17 0 C17.33 1.32 17.66 2.64 18 4 C15.33333333 4 12.66666667 4 10 4 C7.65229357 7.52155964 7.62330386 9.50771843 7.375 13.6875 C7.30023437 14.86699219 7.22546875 16.04648438 7.1484375 17.26171875 C7.09945312 18.16535156 7.05046875 19.06898437 7 20 C8.65 20 10.3 20 12 20 C12 20.66 12 21.32 12 22 C8.04 22 4.08 22 0 22 C0 21.34 0 20.68 0 20 C0.99 20 1.98 20 3 20 C3 13.73 3 7.46 3 1 C2.01 0.67 1.02 0.34 0 0 Z " fill="#D9D9DD" transform="translate(930,1032)"/>
<path d="M0 0 C2.97 0 5.94 0 9 0 C8.01 0.33 7.02 0.66 6 1 C7.98 5.95 9.96 10.9 12 16 C12.598125 14.5975 13.19625 13.195 13.8125 11.75 C15.24440832 8.51419294 16.65912867 5.69200203 19 3 C17.70024676 9.71539173 15.70071112 15.72019113 13 22 C11.12011719 21.74780273 11.12011719 21.74780273 9 21 C7.90332031 19.26586914 7.90332031 19.26586914 7.078125 17.03515625 C6.77519531 16.23529297 6.47226563 15.43542969 6.16015625 14.61132812 C5.85980469 13.77021484 5.55945312 12.92910156 5.25 12.0625 C4.93417969 11.22525391 4.61835937 10.38800781 4.29296875 9.52539062 C2 3.3562128 2 3.3562128 2 1 C1.34 0.67 0.68 0.34 0 0 Z " fill="#E2E3E5" transform="translate(1143,1032)"/>
<path d="M0 0 C2.97 0 5.94 0 9 0 C8.01 0.33 7.02 0.66 6 1 C7.98 5.95 9.96 10.9 12 16 C12.598125 14.5975 13.19625 13.195 13.8125 11.75 C15.24440832 8.51419294 16.65912867 5.69200203 19 3 C18.39124245 7.60416626 17.15277044 11.56483324 15.4375 15.875 C14.98246094 17.02742188 14.52742187 18.17984375 14.05859375 19.3671875 C13.70925781 20.23601562 13.35992188 21.10484375 13 22 C11.12011719 21.74780273 11.12011719 21.74780273 9 21 C7.90332031 19.26586914 7.90332031 19.26586914 7.078125 17.03515625 C6.77519531 16.23529297 6.47226562 15.43542969 6.16015625 14.61132812 C5.85980469 13.77021484 5.55945313 12.92910156 5.25 12.0625 C4.93417969 11.22525391 4.61835937 10.38800781 4.29296875 9.52539062 C2 3.3562128 2 3.3562128 2 1 C1.34 0.67 0.68 0.34 0 0 Z " fill="#E4E5E6" transform="translate(726,1032)"/>
<path d="M0 0 C3.15743945 0.23607024 4.25295966 0.74403728 7.0625 2.5 C9.86883315 6.88489555 10.09961759 10.55284677 9.0625 15.625 C7.36096685 18.74030701 5.2857112 21.0133944 2.0625 22.625 C-1.4375 22.8125 -1.4375 22.8125 -4.9375 22.625 C-5.5975 21.965 -6.2575 21.305 -6.9375 20.625 C-5.9475 20.625 -4.9575 20.625 -3.9375 20.625 C-0.86758319 20.46057723 -0.86758319 20.46057723 2.0625 19.625 C4.78636775 16.40588357 4.34573708 12.66112839 4.0625 8.625 C3.1650173 5.79121868 3.1650173 5.79121868 2.0625 3.625 C-1.88477588 3.44557837 -4.5355513 3.53149311 -7.9375 5.625 C-5.58919978 1.71116631 -4.6074605 0.73134294 0 0 Z " fill="#E0E0E3" transform="translate(990.9375,1031.375)"/>
<path d="M0 0 C2.75 -0.3125 2.75 -0.3125 6 0 C9.11753483 2.89485377 9.94818224 4.49995865 10.390625 8.76953125 C10.36431837 10.11774585 10.31701804 11.46569518 10.25 12.8125 C10.23195313 13.50537109 10.21390625 14.19824219 10.1953125 14.91210938 C10.14851064 16.60867664 10.07677624 18.30452476 10 20 C10.99 20 11.98 20 13 20 C13 20.66 13 21.32 13 22 C9.37 22 5.74 22 2 22 C2 21.34 2 20.68 2 20 C2.99 19.67 3.98 19.34 5 19 C5.08097324 16.72975032 5.13917704 14.45867925 5.1875 12.1875 C5.23970703 10.29064453 5.23970703 10.29064453 5.29296875 8.35546875 C5.30650713 5.06644492 5.30650713 5.06644492 3.61328125 3.17578125 C3.08089844 2.78777344 2.54851563 2.39976563 2 2 C1.34 1.34 0.68 0.68 0 0 Z " fill="#D4D4D9" transform="translate(852,1032)"/>
<path d="M0 0 C2.75 -0.3125 2.75 -0.3125 6 0 C9.11753483 2.89485377 9.94818224 4.49995865 10.390625 8.76953125 C10.36431837 10.11774585 10.31701804 11.46569518 10.25 12.8125 C10.23195313 13.50537109 10.21390625 14.19824219 10.1953125 14.91210938 C10.14851064 16.60867664 10.07677624 18.30452476 10 20 C10.99 20 11.98 20 13 20 C13 20.66 13 21.32 13 22 C9.37 22 5.74 22 2 22 C2 21.34 2 20.68 2 20 C2.99 19.67 3.98 19.34 5 19 C5.08097324 16.72975032 5.13917704 14.45867925 5.1875 12.1875 C5.23970703 10.29064453 5.23970703 10.29064453 5.29296875 8.35546875 C5.30650713 5.06644492 5.30650713 5.06644492 3.61328125 3.17578125 C3.08089844 2.78777344 2.54851563 2.39976563 2 2 C1.34 1.34 0.68 0.68 0 0 Z " fill="#D6D6DB" transform="translate(787,1032)"/>
<path d="M0 0 C2.31 0 4.62 0 7 0 C7 10.56 7 21.12 7 32 C5.35 32 3.7 32 2 32 C2.33 31.34 2.66 30.68 3 30 C3.15469367 27.82325217 3.25002106 25.6421652 3.31640625 23.4609375 C3.35830078 22.15898438 3.40019531 20.85703125 3.44335938 19.515625 C3.48317299 18.13541955 3.52288522 16.75521117 3.5625 15.375 C3.60569407 13.98696585 3.64930865 12.59894472 3.69335938 11.2109375 C3.79972 7.80739744 3.90174714 4.40378222 4 1 C2.68 0.67 1.36 0.34 0 0 Z " fill="#F8F8F6" transform="translate(1236,1021)"/>
<path d="M0 0 C2.31 0 4.62 0 7 0 C8.05619003 4.28297531 8.11702092 8.42985646 8.0625 12.8125 C8.05798828 13.50537109 8.05347656 14.19824219 8.04882812 14.91210938 C8.03713156 16.60811068 8.01919924 18.30406703 8 20 C8.99 20 9.98 20 11 20 C11 20.66 11 21.32 11 22 C7.37 22 3.74 22 0 22 C0 21.34 0 20.68 0 20 C0.99 19.67 1.98 19.34 3 19 C3.495 10.09 3.495 10.09 4 1 C2.68 0.67 1.36 0.34 0 0 Z " fill="#E3E4E5" transform="translate(1060,1032)"/>
<path d="M0 0 C2.64 0 5.28 0 8 0 C8 6.93 8 13.86 8 21 C5.69 21 3.38 21 1 21 C1.99 20.67 2.98 20.34 4 20 C4 13.73 4 7.46 4 1 C2.68 0.67 1.36 0.34 0 0 Z " fill="#E6E6E7" transform="translate(1250,1032)"/>
<path d="M0 0 C7.92 0 15.84 0 24 0 C24 2.97 24 5.94 24 9 C21.22017379 7.6100869 21.12536659 5.81341647 20 3 C17.70370006 1.85185003 15.92301914 1.69230191 13.375 1.4375 C11.93125 1.293125 10.4875 1.14875 9 1 C9 5.29 9 9.58 9 14 C8.67 14 8.34 14 8 14 C8 9.71 8 5.42 8 1 C7.01 1 6.02 1 5 1 C5 10.24 5 19.48 5 29 C4.67 29 4.34 29 4 29 C4 19.76 4 10.52 4 1 C2.68 0.67 1.36 0.34 0 0 Z " fill="#CDCDD4" transform="translate(699,1023)"/>
<path d="M0 0 C2.46800047 1.15173355 4.04783565 2.04783565 6 4 C6.56783505 7.71184809 6.54124763 11.28629102 6 15 C3.7984026 17.89683868 2.21405538 19.39297231 -1 21 C-2.99960012 21.039992 -5.00047242 21.04346799 -7 21 C-7 20.67 -7 20.34 -7 20 C-6.05125 19.731875 -5.1025 19.46375 -4.125 19.1875 C-0.74732727 18.25013412 -0.74732727 18.25013412 1 15 C1.2799092 12.39158121 1.2799092 12.39158121 1.1875 9.5625 C1.18105469 8.61503906 1.17460938 7.66757813 1.16796875 6.69140625 C1.01959281 4.3139406 0.67263878 2.27620963 0 0 Z " fill="#E9E9EA" transform="translate(829,1033)"/>
<path d="M0 0 C2.53903996 0.35021241 3.82093298 0.84011873 5.75 2.5625 C7.52268383 6.01923347 7.55509806 9.23433476 7 13 C5.35907041 16.69209157 3.44487606 18.88862435 0 21 C-0.66 21 -1.32 21 -2 21 C-2 19 -2 19 -0.5625 17.5 C-0.046875 17.005 0.46875 16.51 1 16 C3.12551114 11.74897771 2.43325054 6.32682977 1 1.9375 C0.67 1.298125 0.34 0.65875 0 0 Z " fill="#E6E6E8" transform="translate(965,1033)"/>
<path d="M0 0 C3 0.25 3 0.25 5 2.25 C5.1875 4.8125 5.1875 4.8125 5 7.25 C4 8.25 4 8.25 1.71484375 8.34765625 C0.34005859 8.33025391 0.34005859 8.33025391 -1.0625 8.3125 C-1.98160156 8.30347656 -2.90070312 8.29445313 -3.84765625 8.28515625 C-4.55792969 8.27355469 -5.26820313 8.26195312 -6 8.25 C-4.97802198 0.41483516 -4.97802198 0.41483516 0 0 Z " fill="#090D3C" transform="translate(879,1032.75)"/>
<path d="M0 0 C2.01822917 0.06510417 4.03645833 0.13020833 6.0546875 0.1953125 C5.7421875 3.5703125 5.7421875 3.5703125 5.0546875 7.1953125 C2.0546875 9.1953125 2.0546875 9.1953125 -0.5703125 8.8828125 C-2.9453125 8.1953125 -2.9453125 8.1953125 -3.9453125 7.1953125 C-4.1328125 4.7578125 -4.1328125 4.7578125 -3.9453125 2.1953125 C-1.9453125 0.1953125 -1.9453125 0.1953125 0 0 Z " fill="#0C103E" transform="translate(1043.9453125,1042.8046875)"/>
<path d="M0 0 C0.33 1.98 0.66 3.96 1 6 C-1.40545638 7.20272819 -2.94996953 7.10071472 -5.625 7.0625 C-6.85089844 7.04896484 -6.85089844 7.04896484 -8.1015625 7.03515625 C-9.04128906 7.01775391 -9.04128906 7.01775391 -10 7 C-10.22111261 4.27294446 -10.30361625 2.53579338 -8.9375 0.125 C-5.88430685 -1.64782183 -3.33588292 -0.69235306 0 0 Z " fill="#090D3C" transform="translate(1296,1034)"/>
<path d="M0 0 C0.33 1.98 0.66 3.96 1 6 C-1.40545638 7.20272819 -2.94996953 7.10071472 -5.625 7.0625 C-6.85089844 7.04896484 -6.85089844 7.04896484 -8.1015625 7.03515625 C-9.04128906 7.01775391 -9.04128906 7.01775391 -10 7 C-10.22111261 4.27294446 -10.30361625 2.53579338 -8.9375 0.125 C-5.88430685 -1.64782183 -3.33588292 -0.69235306 0 0 Z " fill="#080C3C" transform="translate(1183,1034)"/>
<path d="M0 0 C0.33 1.98 0.66 3.96 1 6 C-1.40545638 7.20272819 -2.94996953 7.10071472 -5.625 7.0625 C-6.85089844 7.04896484 -6.85089844 7.04896484 -8.1015625 7.03515625 C-9.04128906 7.01775391 -9.04128906 7.01775391 -10 7 C-10.22111261 4.27294446 -10.30361625 2.53579338 -8.9375 0.125 C-5.88430685 -1.64782183 -3.33588292 -0.69235306 0 0 Z " fill="#090D3C" transform="translate(766,1034)"/>
<path d="M0 0 C1.670625 0.061875 1.670625 0.061875 3.375 0.125 C3.73690476 5.55357143 3.73690476 5.55357143 2.1875 8 C-0.21090175 9.48866316 -1.85306071 9.41678308 -4.625 9.125 C-5.625 8.125 -5.625 8.125 -5.8125 5.1875 C-5.53057824 0.58277796 -4.55609828 0.15710684 0 0 Z " fill="#070B3B" transform="translate(1211.625,1042.875)"/>
<path d="M0 0 C1.670625 0.061875 1.670625 0.061875 3.375 0.125 C3.73575949 5.53639241 3.73575949 5.53639241 2.1875 8.0625 C0.375 9.125 0.375 9.125 -2.25 8.875 C-4.625 8.125 -4.625 8.125 -5.625 7.125 C-5.8125 4.6875 -5.8125 4.6875 -5.625 2.125 C-3.625 0.125 -3.625 0.125 0 0 Z " fill="#050939" transform="translate(1129.625,1042.875)"/>
<path d="M0 0 C-0.66 0.391875 -1.32 0.78375 -2 1.1875 C-4.29166667 2.85416667 -4.29166667 2.85416667 -4.25 5.6875 C-4.1675 6.450625 -4.085 7.21375 -4 8 C-1.6984589 8.77802187 -1.6984589 8.77802187 1 9 C3.30504044 7.66846734 3.30504044 7.66846734 5 6 C3.63016497 9.16115776 3.0109362 9.9927092 0 12 C-3.12026907 12.32502803 -5.14747535 12.51151479 -7.875 10.875 C-9.54663625 8.08893958 -9.46376624 6.18011138 -9 3 C-6.24653799 -0.05940224 -4.00406942 -0.33367245 0 0 Z " fill="#E3E4E5" transform="translate(1129,1042)"/>
<path d="M0 0 C0.33 0 0.66 0 1 0 C1 3.3 1 6.6 1 10 C-6.92 10 -14.84 10 -23 10 C-23 9.34 -23 8.68 -23 8 C-21.72125 8.020625 -20.4425 8.04125 -19.125 8.0625 C-17.41661638 8.04630679 -15.70827511 8.02515869 -14 8 C-12.67162109 8.01160156 -12.67162109 8.01160156 -11.31640625 8.0234375 C-8.69724041 7.93781841 -6.50163605 7.7904631 -4 7 C-1.90203358 4.75641637 -1.16405492 2.9101373 0 0 Z " fill="#A2A4B3" transform="translate(722,1044)"/>
<path d="M0 0 C3.83246777 -0.36499693 5.86465013 -0.06516845 9.375 1.625 C12 4 12 4 12.4375 7.1875 C12 10 12 10 11 11 C9.31391034 11.07205511 7.62499341 11.08386068 5.9375 11.0625 C5.01839844 11.05347656 4.09929688 11.04445313 3.15234375 11.03515625 C2.44207031 11.02355469 1.73179687 11.01195312 1 11 C1 10.67 1 10.34 1 10 C2.98 9.67 4.96 9.34 7 9 C7 7.35 7 5.7 7 4 C4.69 3.01 2.38 2.02 0 1 C0 0.67 0 0.34 0 0 Z " fill="#D6D6DB" transform="translate(876,1031)"/>
<path d="M0 0 C0.66 2.31 1.32 4.62 2 7 C5.465 6.505 5.465 6.505 9 6 C9 6.66 9 7.32 9 8 C5.60268371 10.09065618 2.95730595 10.42098999 -1 10 C-2.875 8.8125 -2.875 8.8125 -4 7 C-4.375 4.4375 -4.375 4.4375 -4 2 C-1 0 -1 0 0 0 Z " fill="#EBEBEB" transform="translate(1040,1044)"/>
<path d="M0 0 C1.9375 0.6875 1.9375 0.6875 4 2 C4.875 4.5 4.875 4.5 5 7 C3 9 3 9 0.8359375 9.1953125 C-0.38222656 9.16050781 -0.38222656 9.16050781 -1.625 9.125 C-2.44226562 9.10695313 -3.25953125 9.08890625 -4.1015625 9.0703125 C-4.72804688 9.04710937 -5.35453125 9.02390625 -6 9 C-6 8.67 -6 8.34 -6 8 C-2.535 7.505 -2.535 7.505 1 7 C0.67 4.69 0.34 2.38 0 0 Z " fill="#E9EAEA" transform="translate(1183,1033)"/>
<path d="M0 0 C1 2 2 4 3 6 C5.52733235 6.65555119 5.52733235 6.65555119 8 7 C7.67 7.66 7.34 8.32 7 9 C1.375 9.25 1.375 9.25 -2 7 C-2.3125 4.5 -2.3125 4.5 -2 2 C-1.34 1.34 -0.68 0.68 0 0 Z " fill="#F0F0EF" transform="translate(1204,1045)"/>
<path d="M0 0 C1.9375 0.6875 1.9375 0.6875 4 2 C4.875 4.5 4.875 4.5 5 7 C3 9 3 9 -0.125 9.125 C-1.548125 9.063125 -1.548125 9.063125 -3 9 C-1.68 8.34 -0.36 7.68 1 7 C0.67 4.69 0.34 2.38 0 0 Z " fill="#EAEAEA" transform="translate(1296,1033)"/>
<path d="M0 0 C1.9375 0.6875 1.9375 0.6875 4 2 C4.875 4.5 4.875 4.5 5 7 C3 9 3 9 -0.125 9.125 C-1.548125 9.063125 -1.548125 9.063125 -3 9 C-1.68 8.34 -0.36 7.68 1 7 C0.67 4.69 0.34 2.38 0 0 Z " fill="#EAEAEA" transform="translate(766,1033)"/>
<path d="M0 0 C0.80824219 0.11085938 1.61648438 0.22171875 2.44921875 0.3359375 C3.37154297 0.47902344 3.37154297 0.47902344 4.3125 0.625 C1.3125 2.625 1.3125 2.625 -1.1875 2.5 C-3.85663992 2.33833421 -3.85663992 2.33833421 -5.5 4.625 C-6.0878125 5.615 -6.0878125 5.615 -6.6875 6.625 C-7.6775 6.295 -8.6675 5.965 -9.6875 5.625 C-7.55725527 0.70905062 -5.31135222 -0.76976119 0 0 Z " fill="#C8C9D0" transform="translate(1046.6875,1031.375)"/>
<path d="M0 0 C0 0.66 0 1.32 0 2 C-2.31 2.33 -4.62 2.66 -7 3 C-7.66 4.65 -8.32 6.3 -9 8 C-9.66 7.01 -10.32 6.02 -11 5 C-11.99 6.32 -12.98 7.64 -14 9 C-13.875 6.75 -13.875 6.75 -13 4 C-8.70151806 0.2132421 -5.65125964 -0.45210077 0 0 Z " fill="#B8B9C4" transform="translate(1215,1041)"/>
<path d="M0 0 C-0.33 0.99 -0.66 1.98 -1 3 C-2.65 2.67 -4.3 2.34 -6 2 C-6.66 3.65 -7.32 5.3 -8 7 C-8.99 6.67 -9.98 6.34 -11 6 C-10.75 4.125 -10.75 4.125 -10 2 C-6.82026536 -0.35535899 -3.84875379 -0.17494335 0 0 Z " fill="#C5C6CE" transform="translate(1132,1031)"/>
<path d="M0 0 C1.36125 0.12375 1.36125 0.12375 2.75 0.25 C3.08 1.57 3.41 2.89 3.75 4.25 C0.08333333 4.25 -3.58333333 4.25 -7.25 4.25 C-4.83923194 1.28290085 -3.90322061 0.30024774 0 0 Z " fill="#CECFD5" transform="translate(944.25,1031.75)"/>
<path d="M0 0 C-2 2 -2 2 -4 2.375 C-6.20265017 2.82123176 -6.20265017 2.82123176 -7.25 5.0625 C-7.4975 5.701875 -7.745 6.34125 -8 7 C-8.99 6.67 -9.98 6.34 -11 6 C-10.75 4.125 -10.75 4.125 -10 2 C-6.82026536 -0.35535899 -3.84875379 -0.17494335 0 0 Z " fill="#C9C9D1" transform="translate(1214,1031)"/>
<path d="M0 0 C0.33 1.65 0.66 3.3 1 5 C-0.32 4.34 -1.64 3.68 -3 3 C-3 2.34 -3 1.68 -3 1 C-4.65 1.33 -6.3 1.66 -8 2 C-8.33 1.34 -8.66 0.68 -9 0 C-5.93109813 -1.53445094 -3.29905734 -0.54984289 0 0 Z " fill="#CDCED4" transform="translate(1282,1021)"/>
<path d="M0 0 C1.65 0.33 3.3 0.66 5 1 C4.67 2.32 4.34 3.64 4 5 C2.35 4.67 0.7 4.34 -1 4 C-0.67 2.68 -0.34 1.36 0 0 Z " fill="#DEDEE1" transform="translate(1254,1022)"/>
<path d="M0 0 C0 0.66 0 1.32 0 2 C-1.8253125 2.185625 -1.8253125 2.185625 -3.6875 2.375 C-7.06479059 2.78891306 -9.89756695 3.54573451 -13 5 C-12 2 -12 2 -9.875 0.8125 C-6.48581699 -0.14531259 -3.50528139 -0.13746202 0 0 Z " fill="#C1C2CA" transform="translate(1050,1041)"/>
<path d="M0 0 C3.3 0 6.6 0 10 0 C10 2.31 10 4.62 10 7 C8 6 8 6 7 3 C3.48809191 1.77030122 3.48809191 1.77030122 0 1 C0 0.67 0 0.34 0 0 Z " fill="#B8B9C4" transform="translate(1105,1031)"/>
<path d="M0 0 C0.66 0 1.32 0 2 0 C2.33 1.98 2.66 3.96 3 6 C3.99 6.33 4.98 6.66 6 7 C4 8 4 8 0 8 C0 5.36 0 2.72 0 0 Z " fill="#CFD0D6" transform="translate(1100,1046)"/>
<path d="M0 0 C1.32 0.33 2.64 0.66 4 1 C4.33 2.65 4.66 4.3 5 6 C3.68 5.67 2.36 5.34 1 5 C0.67 3.35 0.34 1.7 0 0 Z " fill="#ECECEC" transform="translate(1028,1033)"/>
<path d="M0 0 C0.33 0 0.66 0 1 0 C1 1.98 1 3.96 1 6 C-0.65 6 -2.3 6 -4 6 C-2.69593116 3.98079663 -1.36176581 1.98075027 0 0 Z " fill="#E7E8E8" transform="translate(721,1047)"/>
</svg>
